<svg width="24" height="24" viewBox="0 0 24 24" fill="none" xmlns="http://www.w3.org/2000/svg">
<path fill-rule="evenodd" clip-rule="evenodd" d="M18.8011 2.64933C18.2858 1.91827 17.3961 2.30744 17.3961 2.97706C17.3961 3.07232 17.4103 3.24045 17.4279 3.44916C17.4967 4.26558 17.6179 5.70291 17.1477 5.8283C16.6431 5.96285 14.8575 4.41955 14.7284 4.01387C14.6926 3.9012 14.8073 3.7051 14.9586 3.44652C15.1263 3.15982 15.339 2.79631 15.4412 2.38452C15.6116 1.69824 14.6076 1 13.5 1C12.5 1 12.1364 1.19316 11.5316 1.74397C11.2659 1.98596 10.9731 2.43484 10.6945 2.86212C10.3389 3.4074 10.0062 3.9175 9.78195 3.9175C9.60423 3.9175 9.42728 3.77784 9.23124 3.62311C8.98602 3.42957 8.71093 3.21244 8.3671 3.21557C7.77768 3.22093 7.36805 3.56534 6.87838 3.97705C5.4733 5.15838 4.14835 6.41016 2.81754 7.66748C2.63921 7.83596 2.46078 8.00454 2.28204 8.17306C0.921071 9.45619 0 10.3246 0 11.5C0 12.5357 0.395835 13.2448 0.861308 14.0787C1.1421 14.5818 1.4023 15.0915 1.63346 15.6191C2.2378 16.9982 2.7656 18.2027 4.90028 18.3034C5.7659 18.3443 6.74147 17.6459 7.74522 16.9274C7.83411 16.8637 7.92326 16.7992 8.01279 16.7344C8.96944 16.0417 9.97131 15.3163 11.1977 15.3163C12.5535 15.3163 13.4253 16.3577 14.2411 17.3322C14.4084 17.532 14.5734 17.7291 14.7397 17.9137C15.3029 18.5392 16.3617 19.715 18.6176 19.715C20.3423 19.715 21.4304 18.3954 21.8934 17.805C22.7915 16.6599 24.0157 13.4878 24 12C23.9795 10.0543 22.5695 8.03397 21.5068 6.51116C20.8045 5.50487 20.1015 4.49912 19.3961 3.495C19.1647 3.16568 18.9615 2.87685 18.8011 2.64933ZM6.98177 15.0668C6.18003 15.7192 5.15425 16.5539 4.31639 16.1777C3.87106 15.9778 3.53058 15.2414 3.2605 14.6573C3.16545 14.4517 3.07912 14.265 3 14.1272C2.49701 13.2509 2 12.2897 2 11.5C1.99984 11.2686 2.1978 11.0696 2.36643 10.9001C2.407 10.8593 2.44587 10.8203 2.47988 10.7828C2.94071 10.2759 3.44337 9.80715 3.94577 9.33861C4.27256 9.03385 4.59923 8.7292 4.91421 8.41421C5.97563 7.35279 7.12897 6.37187 8.28122 5.41082C8.72179 5.72059 9.23805 5.9175 9.78195 5.9175C10.4802 5.9175 10.9669 5.58368 11.1569 5.43932C11.6442 5.0692 11.9742 4.55781 12.3034 4.04766C12.4711 3.7879 12.6385 3.52847 12.8264 3.28816C12.6934 3.72028 12.6849 4.1876 12.8226 4.62027C12.9933 5.15678 13.3287 5.49938 13.4653 5.63264C14.1816 6.33104 15.1968 7.26426 16.1221 7.64675C16.4631 7.78769 17.0179 7.93281 17.663 7.76077C17.9984 7.67134 18.4522 7.47737 18.8282 7.04769C18.9568 6.90073 19.0557 6.74969 19.1319 6.603C19.2771 6.8108 19.4242 7.01799 19.5714 7.22541C20.1969 8.10666 20.8252 8.99198 21.3307 9.94523C21.7794 10.7915 21.9944 11.4816 22.0001 12.0211C22.0038 12.3762 21.8169 13.2502 21.4143 14.3353C20.9901 15.4787 20.1536 17.715 18.6176 17.715C17.7687 17.715 17.2667 17.4749 16.9409 17.2481C16.4062 16.8759 15.9931 16.3648 15.5805 15.854C15.3049 15.513 15.0295 15.1722 14.7181 14.873C14.0098 14.1925 12.8259 13.3163 11.1977 13.3163C9.40149 13.3163 8.10683 14.2297 7.55319 14.6203C7.38258 14.7407 7.18971 14.8976 6.98177 15.0668Z" fill="#0000FF"/>
<path d="M17.2629 22.1572C17.3264 22.3027 17.3814 22.4287 17.4 22.5C17.6901 23.1973 18.3562 23.9998 19 24C19.6438 24.0002 20.3996 23.241 20.6 22.875C20.9007 22.3855 21 22.1841 21 21.75C21 21 20.0848 20.9994 19.8 21C19.6638 21.0003 19.2302 21.0002 18.7214 21.0001C18.4251 21.0001 18.1034 21 17.8 21C17.4 21 17 21 17 21.375C17 21.5553 17.1459 21.8893 17.2629 22.1572Z" fill="#0000FF"/>
</svg>
