<svg width="24" height="24" viewBox="0 0 24 24" fill="none" xmlns="http://www.w3.org/2000/svg">
<path d="M17.59 17L19 15.59L15.41 12L19 8.41L17.59 7L14 10.59L10.41 7L9 8.41L12.59 12L9 15.59L10.41 17L14 13.41L17.59 17Z" fill="#0000FF"/>
<path fill-rule="evenodd" clip-rule="evenodd" d="M0 12L5.41 21.11C5.77 21.64 6.31 22 7 22H22C23.1 22 24 21.1 24 20V4C24 2.9 23.1 2 22 2H7C6.31 2 5.77 2.35 5.41 2.88L0 12ZM2.32575 11.9994L7.07103 4H22V20H7.0769L2.32575 11.9994ZM6.99981 4C6.99983 4 6.9997 4 6.99981 4Z" fill="#0000FF"/>
</svg>
