<svg width="24" height="24" viewBox="0 0 24 24" fill="none" xmlns="http://www.w3.org/2000/svg">
<path fill-rule="evenodd" clip-rule="evenodd" d="M16.0517 12.4575C16.6605 11.91 17.1219 11.0144 17.1219 10.1319C17.1219 7.78292 15.4768 6.44938 13.1278 6.44938H10.8427V4H8.42331V6.45068H6V8.90658H10.0567L8.42331 9.51143V18.592C8.42331 18.8462 8.56279 18.9804 8.77527 19H14.2854C16.1677 18.9387 17.6746 17.3758 17.6746 15.453C17.6746 14.1925 17.0268 13.0871 16.0517 12.4575ZM14.2515 16.4737L11.1921 16.4763C10.9639 16.4711 10.8153 16.3381 10.8062 16.0853V8.8401H13.4368C14.1277 8.8401 14.6843 9.43973 14.6843 10.1358C14.6843 10.8345 14.1277 11.4016 13.4368 11.4016L12.9818 11.425C12.7381 11.4355 12.6103 11.5802 12.6025 11.807V13.3621C12.6194 13.6098 12.7694 13.7376 13.0027 13.7376H14.1316C14.8811 13.7376 15.4886 14.3541 15.4886 15.1115C15.4886 15.8298 14.9411 16.4151 14.2515 16.4737Z" fill="#0000FF"/>
<path fill-rule="evenodd" clip-rule="evenodd" d="M24 12.0005C24 18.6277 18.6277 24.0009 11.9995 24.0009C5.37234 24.0009 0 18.6277 0 12.0005C0 5.37327 5.37234 0 11.9995 0C18.6277 0 24 5.37327 24 12.0005ZM22 12.0005C22 17.5232 17.523 22.0009 11.9995 22.0009C6.47711 22.0009 2 17.5233 2 12.0005C2 6.47764 6.47711 2 11.9995 2C17.523 2 22 6.47774 22 12.0005Z" fill="#0000FF"/>
</svg>
