<svg width="24" height="24" viewBox="0 0 24 24" fill="none" xmlns="http://www.w3.org/2000/svg">
<path d="M16 10H8V12H16V10Z" fill="#0000FF"/>
<path d="M8 14H16V16H8V14Z" fill="#0000FF"/>
<path fill-rule="evenodd" clip-rule="evenodd" d="M17.4142 1L18.8284 2.41406L16.7094 4.53223C16.9109 4.67871 17.1051 4.83496 17.2917 5C18.2152 5.81543 18.9489 6.83984 19.4185 8H23V10H19.9381C19.979 10.3271 20 10.6611 20 11V12H23V14H20V15C20 15.3389 19.979 15.6729 19.9381 16H23V18H19.4185C18.2317 20.9316 15.3574 23 12 23C8.64258 23 5.76831 20.9316 4.58154 18H1V16H4.06189C4.03748 15.8047 4.02014 15.6064 4.01013 15.4072C4.00342 15.2725 4 15.1367 4 15V14H1V12H4V11C4 10.833 4.00513 10.668 4.01514 10.5039C4.02039 10.418 4.02698 10.333 4.03491 10.248C4.0426 10.165 4.05164 10.082 4.06189 10H1V8H4.58154C5.05115 6.83984 5.78479 5.81543 6.70825 5C6.81104 4.90918 6.91614 4.82129 7.02344 4.73535C7.11096 4.66602 7.20007 4.59766 7.29065 4.53223L5.17163 2.41406L6.58582 1L9.11914 3.53418C10.0131 3.18945 10.9844 3 12 3C13.0156 3 13.9869 3.18945 14.8809 3.53418L17.4142 1ZM12 5C8.68628 5 6 7.68652 6 11V15C6 18.3135 8.68628 21 12 21C15.3137 21 18 18.3135 18 15V11C18 7.68652 15.3137 5 12 5Z" fill="#0000FF"/>
</svg>
