<svg width="24" height="24" viewBox="0 0 24 24" fill="none" xmlns="http://www.w3.org/2000/svg">
<path d="M16.9497 8.3641L18.7175 10.1319L20.1317 8.71765L18.3639 6.94988L20.1317 5.18212L18.7175 3.7679L16.9497 5.53567L15.182 3.7679L13.7677 5.18212L15.5355 6.94988L13.7677 8.71765L15.182 10.1319L16.9497 8.3641Z" fill="#0000FF"/>
<path d="M4 5.99967H10.6667V7.99967H4V5.99967Z" fill="#0000FF"/>
<path d="M20 13.3333H13.3334V15.3333H20V13.3333Z" fill="#0000FF"/>
<path d="M20 16.6667H13.3334V18.6667H20V16.6667Z" fill="#0000FF"/>
<path d="M6.33333 19V16.6667H4V14.6667H6.33333V12.3333H8.33333V14.6667H10.6667V16.6667H8.33333V19H6.33333Z" fill="#0000FF"/>
<path fill-rule="evenodd" clip-rule="evenodd" d="M0 2C0 0.89543 0.895431 0 2 0H22C23.1046 0 24 0.895431 24 2V22C24 23.1046 23.1046 24 22 24H2C0.89543 24 0 23.1046 0 22V2ZM2 2H22V22H2L2 2Z" fill="#0000FF"/>
</svg>
