<svg width="24" height="24" viewBox="0 0 24 24" fill="none" xmlns="http://www.w3.org/2000/svg">
<path fill-rule="evenodd" clip-rule="evenodd" d="M24 12C24 18.627 18.6278 24 12 24C5.37225 24 0 18.627 0 12C0 5.373 5.37225 0 12 0C18.6278 0 24 5.373 24 12ZM12 2C6.47714 2 2 6.47714 2 12C2 17.5229 6.47714 22 12 22C17.5229 22 22 17.5229 22 12C22 6.47714 17.5229 2 12 2ZM7 14.7036C7.06874 16.7978 8.57453 18.1651 11 18.4462V20H13V18.4377C15.4771 18.1268 17 16.6734 17 14.5208C17 12.6052 15.9157 11.5255 13.4286 10.9856L11.9225 10.6634C10.494 10.3326 9.89157 9.89719 9.89157 9.12224C9.89157 8.19056 10.7522 7.57234 12.0344 7.57234C13.3339 7.57234 14.2547 8.21668 14.3408 9.27897H16.7762C16.7383 7.27356 15.3199 5.86481 13 5.56127V4H11V5.57422C8.77904 5.90649 7.27539 7.3299 7.27539 9.34863C7.27539 11.1859 8.40275 12.3614 10.6919 12.8577L12.3098 13.2147C13.8072 13.5543 14.401 14.007 14.401 14.8255C14.401 15.7485 13.4544 16.419 12.0688 16.419C10.6919 16.419 9.62478 15.7398 9.5043 14.7036H7Z" fill="#0000FF"/>
</svg>
