<svg width="24" height="24" viewBox="0 0 24 24" fill="none" xmlns="http://www.w3.org/2000/svg">
<path fill-rule="evenodd" clip-rule="evenodd" d="M2 9.75L4 11V15.8468C4 16.5332 4.35195 17.1716 4.93232 17.538L10.9323 21.3259C11.5845 21.7377 12.4155 21.7377 13.0677 21.3259L19.0677 17.5378C19.6481 17.1714 20 16.533 20 15.8467V11L24 8.5L12 2L0 8.5V17.5C0 18.0523 0.447715 18.5 1 18.5C1.55228 18.5 2 18.0523 2 17.5V9.75ZM6 15.8468V12.25L12 16L18 12.25V15.8467L12 19.6348L6 15.8468ZM3.97119 8.6235L12 13.6415L20.0288 8.6235L12 4.27456L3.97119 8.6235Z" fill="#0000FF"/>
</svg>
