<svg width="24" height="24" viewBox="0 0 24 24" fill="none" xmlns="http://www.w3.org/2000/svg">
<path fill-rule="evenodd" clip-rule="evenodd" d="M10.26 21.4174L12 23L13.74 21.4294L13.7874 21.3864C19.9408 15.7996 24 12.1143 24 7.59401C24 3.90136 21.096 1 17.4 1C16.0016 1 14.6408 1.43561 13.5016 2.18436C12.9398 2.55357 12.432 2.99892 12 3.50572C11.568 2.99892 11.0602 2.55357 10.4984 2.18436C9.35919 1.43561 7.99844 1 6.6 1C2.904 1 0 3.90136 0 7.59401C0 12.1222 4.07331 15.8125 10.2448 21.4037L10.26 21.4174ZM12.3956 19.9487C12.3963 19.948 12.397 19.9474 12.3977 19.9468C15.5274 17.1053 17.9624 14.8906 19.6395 12.8407C21.2941 10.8183 22 9.20241 22 7.59401C22 5.00765 19.9931 3 17.4 3C15.9169 3 14.4627 3.69955 13.5221 4.80308L12 6.58891L10.4779 4.80308C9.5373 3.69955 8.08311 3 6.6 3C4.00686 3 2 5.00764 2 7.59401C2 9.20238 2.70594 10.8182 4.36004 12.8387C6.03705 14.8871 8.47254 17.0993 11.6028 19.9353L11.6057 19.9379L12.0051 20.3011L12.3956 19.9487Z" fill="#0000FF"/>
</svg>
