<svg width="24" height="24" viewBox="0 0 24 24" fill="none" xmlns="http://www.w3.org/2000/svg">
<path fill-rule="evenodd" clip-rule="evenodd" d="M9 0C6.79086 0 5 1.79086 5 4C5 4.72857 5.19479 5.41165 5.53513 6H2C0.895431 6 0 6.89543 0 8V16H1V22C1 23.1046 1.89543 24 3 24H21C22.1046 24 23 23.1046 23 22V16H24V8C24 6.89543 23.1046 6 22 6H18.4649C18.8052 5.41165 19 4.72857 19 4C19 1.79086 17.2091 0 15 0C13.8053 0 12.7329 0.523755 12 1.35418C11.2671 0.523755 10.1947 0 9 0ZM15 6C16.1046 6 17 5.10457 17 4C17 2.89543 16.1046 2 15 2C13.8954 2 13 2.89543 13 4C13 5.10457 13.8954 6 15 6ZM9 6C10.1046 6 11 5.10457 11 4C11 2.89543 10.1046 2 9 2C7.89543 2 7 2.89543 7 4C7 5.10457 7.89543 6 9 6ZM2 8V14H22V8H14.4957L17.09 11.4765L15.4865 12.6718L12.0014 8.00171L8.51641 12.6718L6.91287 11.4765L9.50721 8H2ZM3 16L3 22H21V16H3Z" fill="#0000FF"/>
</svg>
