<svg width="24" height="24" viewBox="0 0 24 24" fill="none" xmlns="http://www.w3.org/2000/svg">
<path d="M13 18V16H11V18H13Z" fill="#0000FF"/>
<path d="M8 10C8 7.79 9.79 6 12 6C14.21 6 16 7.79 16 10C16 11.2829 15.21 11.9733 14.4408 12.6455C13.711 13.2833 13 13.9046 13 15H11C11 13.1787 11.9421 12.4566 12.7704 11.8217C13.4202 11.3236 14 10.8792 14 10C14 8.9 13.1 8 12 8C10.9 8 10 8.9 10 10H8Z" fill="#0000FF"/>
<path fill-rule="evenodd" clip-rule="evenodd" d="M12 24C18.6278 24 24 18.627 24 12C24 5.373 18.6278 0 12 0C5.37225 0 0 5.373 0 12C0 18.627 5.37225 24 12 24ZM2 12C2 6.47714 6.47714 2 12 2C17.5229 2 22 6.47714 22 12C22 17.5229 17.5229 22 12 22C6.47714 22 2 17.5229 2 12Z" fill="#0000FF"/>
</svg>
