<svg width="24" height="24" viewBox="0 0 24 24" fill="none" xmlns="http://www.w3.org/2000/svg">
<path d="M20 8.96125L12 2.56125L4 8.96125V20H5.5L5 22H2V8L12 0L22 8V12L20 10.5V8.96125Z" fill="#0000FF"/>
<path d="M12.5 12C14.1575 12 15.5 13.3425 15.5 15C15.5 16.6575 14.1575 18 12.5 18C10.8425 18 9.5 16.6575 9.5 15C9.5 13.3425 10.8425 12 12.5 12Z" fill="#0000FF"/>
<path d="M7 24V21.5C7 19.8375 9.5 19 12.5 19C13.6001 19 14.633 19.1126 15.5 19.3372C16.9973 19.7252 18 20.4471 18 21.5V24H7Z" fill="#0000FF"/>
<path d="M20 21.5V24H24V21.5C24 19.9291 21.7678 19.0948 18.9908 19.0076C19.576 19.6221 20 20.4388 20 21.5Z" fill="#0000FF"/>
<path d="M16.8339 17.4956C17.3105 17.8142 17.8834 18 18.5 18C20.1575 18 21.5 16.6575 21.5 15C21.5 13.3425 20.1575 12 18.5 12C17.8834 12 17.3104 12.1858 16.8339 12.5044C17.2576 13.2388 17.5 14.091 17.5 15C17.5 15.909 17.2576 16.7612 16.8339 17.4956Z" fill="#0000FF"/>
</svg>
