<svg width="24" height="24" viewBox="0 0 24 24" fill="none" xmlns="http://www.w3.org/2000/svg">
<path fill-rule="evenodd" clip-rule="evenodd" d="M12 18.162C8.5965 18.162 5.838 15.4035 5.838 12C5.838 8.5965 8.5965 5.838 12 5.838C15.4035 5.838 18.162 8.5965 18.162 12C18.162 15.4035 15.4035 18.162 12 18.162ZM8.00025 12C8.00025 9.79125 9.79125 8.00025 12 8.00025C14.2087 8.00025 15.9998 9.79125 15.9998 12C15.9998 14.2087 14.2087 15.9998 12 15.9998C9.79125 15.9998 8.00025 14.2087 8.00025 12Z" fill="#0000FF"/>
<path d="M16.9657 5.59425C16.9657 6.39 17.6107 7.03425 18.4057 7.03425C19.2014 7.03425 19.8457 6.39 19.8457 5.59425C19.8457 4.7985 19.2014 4.15425 18.4057 4.15425C17.6107 4.15425 16.9657 4.7985 16.9657 5.59425Z" fill="#0000FF"/>
<path fill-rule="evenodd" clip-rule="evenodd" d="M6 0H18C21.3137 0 24 2.68629 24 6V18C24 21.3137 21.3137 24 18 24H6C2.68629 24 0 21.3137 0 18V6C0 2.68629 2.68629 0 6 0ZM6 2C3.79086 2 2 3.79086 2 6V18C2 20.2091 3.79086 22 6 22H18C20.2091 22 22 20.2091 22 18V6C22 3.79086 20.2091 2 18 2H6Z" fill="#0000FF"/>
</svg>
