<svg width="24" height="24" viewBox="0 0 24 24" fill="none" xmlns="http://www.w3.org/2000/svg">
<path d="M7 14C8.10457 14 9 13.1046 9 12C9 10.8954 8.10457 10 7 10C5.89543 10 5 10.8954 5 12C5 13.1046 5.89543 14 7 14Z" fill="#0000FF"/>
<path fill-rule="evenodd" clip-rule="evenodd" d="M16 19H22V15H24V9H13.32C12.17 6.58 9.72 5 7 5C3.14 5 0 8.14 0 12C0 15.86 3.14 19 7 19C9.72 19 12.18 17.42 13.32 15H16V19ZM20 17H18V13H11.94L11.71 13.67C11.01 15.66 9.11 17 7 17C4.24 17 2 14.76 2 12C2 9.24 4.24 7 7 7C9.11 7 11.01 8.34 11.71 10.33L11.94 11H22V13H20V17Z" fill="#0000FF"/>
</svg>
