<svg width="24" height="24" viewBox="0 0 24 24" fill="none" xmlns="http://www.w3.org/2000/svg">
<path d="M17.1944 8.25447C17.585 7.86394 17.585 7.23078 17.1944 6.84025C16.8039 6.44973 16.1708 6.44973 15.7802 6.84025L7.78024 14.8403C7.38971 15.2308 7.38971 15.8639 7.78024 16.2545C8.17076 16.645 8.80392 16.645 9.19445 16.2545L17.1944 8.25447Z" fill="#0000FF"/>
<path fill-rule="evenodd" clip-rule="evenodd" d="M12.0288 2.00004H22V12C22 17.5228 17.5228 22 12 22C9.7886 22 7.74486 21.2822 6.08906 20.0669L4.58434 21.5716C3.99855 22.1574 3.0488 22.1574 2.46302 21.5716C1.87723 20.9858 1.87723 20.0361 2.46302 19.4503L3.96252 17.9508C2.72939 16.288 2 14.2292 2 12C2 6.47715 6.47715 2 12 2L12.0288 2.00004ZM20 4.00004H12.0232L12 4C7.58172 4 4 7.58172 4 12C4 16.4183 7.58172 20 12 20C16.4183 20 20 16.4183 20 12V4.00004Z" fill="#0000FF"/>
</svg>
