<svg width="24" height="24" viewBox="0 0 24 24" fill="none" xmlns="http://www.w3.org/2000/svg">
<path fill-rule="evenodd" clip-rule="evenodd" d="M12 24C18.6278 24 24 18.627 24 12C24 5.373 18.6278 0 12 0C5.37225 0 0 5.373 0 12C0 18.627 5.37225 24 12 24ZM20.4663 17.3242C21.4379 15.7825 22 13.9569 22 12C22 6.47714 17.5229 2 12 2C10.0431 2 8.21747 2.5621 6.67579 3.53365L20.4663 17.3242ZM17.7017 20.2164L3.78362 6.29834C2.65915 7.9157 2 9.88087 2 12C2 17.5229 6.47714 22 12 22C14.1191 22 16.0843 21.3408 17.7017 20.2164Z" fill="#0000FF"/>
</svg>
