<svg width="24" height="24" viewBox="0 0 24 24" fill="none" xmlns="http://www.w3.org/2000/svg">
<path d="M6.75 4.5C7.57875 4.5 8.25 5.17125 8.25 6C8.25 6.82875 7.57875 7.5 6.75 7.5C5.92125 7.5 5.25 6.82875 5.25 6C5.25 5.17125 5.92125 4.5 6.75 4.5Z" fill="#0000FF"/>
<path d="M15.75 9C17.6138 9 18.75 10.6785 18.75 12.75V19.5H15.75V13.5C15.75 12.6713 15.0787 12 14.25 12C13.4213 12 12.75 12.6713 12.75 13.5V19.5H9.75V9H12.75V10.8615C12.8102 10.7934 12.8703 10.7243 12.9309 10.6547C13.6251 9.8566 14.3703 9 15.75 9Z" fill="#0000FF"/>
<path d="M5.25 19.5H8.25V9H5.25V19.5Z" fill="#0000FF"/>
<path fill-rule="evenodd" clip-rule="evenodd" d="M0 2C0 0.89543 0.895431 0 2 0H22C23.1046 0 24 0.895431 24 2V22C24 23.1046 23.1046 24 22 24H2C0.89543 24 0 23.1046 0 22V2ZM2 2H22V22H2V2Z" fill="#0000FF"/>
</svg>
