<svg width="24" height="24" viewBox="0 0 24 24" fill="none" xmlns="http://www.w3.org/2000/svg">
<path d="M4 2C4 0.89543 4.89543 0 6 0H9V2H6V22H16V13H18V22C18 23.1046 17.1046 24 16 24H6C4.89543 24 4 23.1046 4 22V2Z" fill="#0000FF"/>
<path d="M11 2V0C17.08 0 22 4.92 22 11H20C20 6.03 15.97 2 11 2Z" fill="#0000FF"/>
<path d="M11 4V6C13.76 6 16 8.24 16 11H18C18 7.13 14.87 4 11 4Z" fill="#0000FF"/>
<path d="M14 11C14 9.34 12.66 8 11 8C9.34315 8 8 9.34315 8 11C8 12.6569 9.34315 14 11 14C12.6569 14 14 12.6569 14 11Z" fill="#0000FF"/>
</svg>
