<svg width="24" height="24" viewBox="0 0 24 24" fill="none" xmlns="http://www.w3.org/2000/svg">
<path d="M21.6432 19.1432C19.4567 22.0902 15.9514 24 12 24C5.37258 24 0 18.6274 0 12C0 5.37258 5.37258 0 12 0C15.9514 0 19.4567 1.90982 21.6432 4.85675L20.2103 6.28966C18.4036 3.69674 15.3999 2 12 2C6.47715 2 2 6.47715 2 12C2 17.5228 6.47715 22 12 22C15.3999 22 18.4036 20.3033 20.2103 17.7103L21.6432 19.1432Z" fill="#0000FF"/>
<path d="M10 18.4462C7.57453 18.1651 6.06874 16.7978 6 14.7036H8.5043C8.62478 15.7398 9.69191 16.419 11.0688 16.419C12.4544 16.419 13.401 15.7485 13.401 14.8255C13.401 14.007 12.8072 13.5543 11.3098 13.2147L9.69191 12.8577C7.40275 12.3614 6.27539 11.1859 6.27539 9.34863C6.27539 7.3299 7.77904 5.90649 10 5.57422V4H12V5.56127C14.3199 5.86481 15.7383 7.27356 15.7762 9.27897H13.3408C13.2547 8.21668 12.3339 7.57234 11.0344 7.57234C9.75215 7.57234 8.89157 8.19056 8.89157 9.12224C8.89157 9.89719 9.49398 10.3326 10.9225 10.6634L12.4286 10.9856C14.9157 11.5255 16 12.6052 16 14.5208C16 16.6734 14.4771 18.1268 12 18.4377V20H10V18.4462Z" fill="#0000FF"/>
<path d="M16.8787 7.70712L21.1716 12L16.8787 16.2929L18.2929 17.7071L24 12L18.2929 6.29291L16.8787 7.70712Z" fill="#0000FF"/>
</svg>
