<svg width="24" height="24" viewBox="0 0 24 24" fill="none" xmlns="http://www.w3.org/2000/svg">
<path d="M24 12C24 18.6274 18.6274 24 12 24C8.16386 24 4.74813 22.1999 2.5514 19.3984L3.9781 17.9717C5.80116 20.4167 8.71569 22 12 22C17.5229 22 22 17.5228 22 12C22 6.47715 17.5229 2 12 2C8.71569 2 5.80116 3.58333 3.97809 6.02833L2.55139 4.60163C4.74812 1.80007 8.16386 0 12 0C18.6274 0 24 5.37258 24 12Z" fill="#0000FF"/>
<path d="M11.0001 18.4462C8.57459 18.1651 7.0688 16.7978 7.00006 14.7036H9.50436C9.62485 15.7398 10.692 16.419 12.0689 16.419C13.4544 16.419 14.4011 15.7485 14.4011 14.8255C14.4011 14.007 13.8073 13.5543 12.3099 13.2147L10.692 12.8577C8.40281 12.3614 7.27545 11.1859 7.27545 9.34863C7.27545 7.3299 8.7791 5.90649 11.0001 5.57422V4H13.0001V5.56127C15.3199 5.86481 16.7383 7.27356 16.7763 9.27897H14.3409C14.2548 8.21668 13.334 7.57234 12.0345 7.57234C10.7522 7.57234 9.89163 8.19056 9.89163 9.12224C9.89163 9.89719 10.494 10.3326 11.9226 10.6634L13.4286 10.9856C15.9157 11.5255 17.0001 12.6052 17.0001 14.5208C17.0001 16.6734 15.4772 18.1268 13.0001 18.4377V20H11.0001V18.4462Z" fill="#0000FF"/>
<path d="M0 7.70712L4.29289 12L0 16.2929L1.41421 17.7071L7.12132 12L1.41421 6.29291L0 7.70712Z" fill="#0000FF"/>
</svg>
