<svg width="24" height="24" viewBox="0 0 24 24" fill="none" xmlns="http://www.w3.org/2000/svg">
<path fill-rule="evenodd" clip-rule="evenodd" d="M14 3.25203C17.4505 4.14012 20 7.27232 20 11V17L22 19V20H2V19L4 17V11C4 7.27232 6.54955 4.14012 10 3.25203V2C10 0.89543 10.8954 0 12 0C13.1046 0 14 0.89543 14 2V3.25203ZM18 11C18 7.68629 15.3137 5 12 5C8.68629 5 6 7.68629 6 11V18H18V11Z" fill="#0000FF"/>
<path d="M12.0015 24C10.3438 24 9 22.6569 9 21H15.003C15.003 22.6569 13.6592 24 12.0015 24Z" fill="#0000FF"/>
<path d="M0 9.99968C0.275213 6.6637 1.91497 3.71463 4.35985 1.71191L5.62636 3.25988C3.62977 4.89538 2.27751 7.28822 2.0083 9.99968H0Z" fill="#0000FF"/>
<path d="M19.6402 1.71191C22.085 3.71463 23.7248 6.6637 24 9.99968H21.9917C21.7225 7.28822 20.3702 4.89538 18.3736 3.25988L19.6402 1.71191Z" fill="#0000FF"/>
</svg>
