<svg width="24" height="24" viewBox="0 0 24 24" fill="none" xmlns="http://www.w3.org/2000/svg">
<path d="M12 18.5C13.3807 18.5 14.5 17.3807 14.5 16C14.5 14.6193 13.3807 13.5 12 13.5C10.6193 13.5 9.5 14.6193 9.5 16C9.5 17.3807 10.6193 18.5 12 18.5Z" fill="#0000FF"/>
<path fill-rule="evenodd" clip-rule="evenodd" d="M16 8H4C2.89543 8 2 8.89543 2 10V22C2 23.1046 2.89543 24 4 24H20C21.1046 24 22 23.1046 22 22V10C22 8.89543 21.1046 8 20 8H18V6C18 2.68629 15.3137 0 12 0C8.68629 0 6 2.68629 6 6H8C8 3.79086 9.79086 2 12 2C14.2091 2 16 3.79086 16 6V8ZM4 10H20V22H4V10Z" fill="#0000FF"/>
</svg>
