<svg width="24" height="24" viewBox="0 0 24 24" fill="none" xmlns="http://www.w3.org/2000/svg">
<path d="M12 18.5C13.3807 18.5 14.5 17.3807 14.5 16C14.5 14.6193 13.3807 13.5 12 13.5C10.6193 13.5 9.5 14.6193 9.5 16C9.5 17.3807 10.6193 18.5 12 18.5Z" fill="#0000FF"/>
<path fill-rule="evenodd" clip-rule="evenodd" d="M4 8H6V6C6 2.68629 8.68629 0 12 0C15.3137 0 18 2.68629 18 6V8H20C21.1046 8 22 8.89543 22 10V22C22 23.1046 21.1046 24 20 24H4C2.89543 24 2 23.1046 2 22V10C2 8.89543 2.89543 8 4 8ZM4 22H20V10H4V22ZM16 8V6C16 3.79086 14.2091 2 12 2C9.79086 2 8 3.79086 8 6V8H16Z" fill="#0000FF"/>
</svg>
