<svg width="24" height="24" viewBox="0 0 24 24" fill="none" xmlns="http://www.w3.org/2000/svg">
<path d="M8 0C6.89543 0 6 0.89543 6 2V7H8V2H18V22H10V24H18C19.1046 24 20 23.1046 20 22V2C20 0.895431 19.1046 0 18 0H8Z" fill="#0000FF"/>
<path d="M5 11V9C11.08 9 16 13.92 16 20H14C14 15.03 9.97 11 5 11Z" fill="#0000FF"/>
<path d="M5 13V15C7.76 15 10 17.24 10 20H12C12 16.13 8.87 13 5 13Z" fill="#0000FF"/>
<path d="M8 20C8 18.34 6.66 17 5 17C3.34315 17 2 18.3431 2 20C2 21.6569 3.34315 23 5 23C6.65685 23 8 21.6569 8 20Z" fill="#0000FF"/>
</svg>
