<svg width="24" height="24" viewBox="0 0 24 24" fill="none" xmlns="http://www.w3.org/2000/svg">
<path fill-rule="evenodd" clip-rule="evenodd" d="M20 7C20 4.2375 17.7625 2 15 2C12.2375 2 10 4.2375 10 7C10 9.7625 12.2375 12 15 12C17.7625 12 20 9.7625 20 7ZM15 4C16.6579 4 18 5.34207 18 7C18 8.65793 16.6579 10 15 10C13.3421 10 12 8.65793 12 7C12 5.34207 13.3421 4 15 4Z" fill="#0000FF"/>
<path fill-rule="evenodd" clip-rule="evenodd" d="M23.9999 22H9V20H21.9999V18.0569C21.9734 18.0148 21.9055 17.9286 21.7475 17.799C21.3883 17.5043 20.7844 17.1818 19.9554 16.8866C18.3034 16.2984 16.281 16 15 16V14C18.0038 14 23.9999 15.34 23.9999 18V22Z" fill="#0000FF"/>
<path d="M12 14L4 6V10H0V18H4V22L12 14Z" fill="#0000FF"/>
</svg>
