<svg width="24" height="24" viewBox="0 0 24 24" fill="none" xmlns="http://www.w3.org/2000/svg">
<path d="M19.0001 12C19.0001 7.58171 17.2092 3.58171 14.3138 0.686279L12.8996 2.10049C15.4331 4.63399 17.0001 8.13399 17.0001 12C17.0001 15.866 15.4331 19.366 12.8996 21.8995L14.3138 23.3137C17.2092 20.4183 19.0001 16.4183 19.0001 12Z" fill="#0000FF"/>
<path d="M15.0001 12C15.0001 8.68628 13.6569 5.68628 11.4854 3.51471L10.0712 4.92892C11.8808 6.73856 13.0001 9.23856 13.0001 12C13.0001 14.7614 11.8808 17.2614 10.0712 19.0711L11.4854 20.4853C13.6569 18.3137 15.0001 15.3137 15.0001 12Z" fill="#0000FF"/>
<path d="M8.65695 6.34313C10.1047 7.79085 11.0001 9.79085 11.0001 12C11.0001 14.2091 10.1047 16.2091 8.65695 17.6568L7.24273 16.2426C8.32852 15.1568 9.00009 13.6568 9.00009 12C9.00009 10.3431 8.32852 8.84313 7.24273 7.75735L8.65695 6.34313Z" fill="#0000FF"/>
<path d="M7.00009 12C7.00009 10.8954 6.55238 9.89542 5.82852 9.17156L4.41431 10.5858C4.77624 10.9477 5.00009 11.4477 5.00009 12C5.00009 12.5523 4.77624 13.0523 4.41431 13.4142L5.82852 14.8284C6.55238 14.1046 7.00009 13.1046 7.00009 12Z" fill="#0000FF"/>
</svg>
