<svg width="24" height="24" viewBox="0 0 24 24" fill="none" xmlns="http://www.w3.org/2000/svg">
<path fill-rule="evenodd" clip-rule="evenodd" d="M23.631 9C23.7947 9.6471 23.906 10.3154 23.96 11H13V0C13.6846 0.0565753 14.3529 0.170457 15 0.336862C19.231 1.42485 22.5578 4.75813 23.631 9ZM21.5542 9C20.5875 5.86688 18.1243 3.39621 15 2.41612V9H21.5542ZM11 13.0223V0C10.3154 0.0565728 9.64715 0.170706 9 0.337556C3.82432 1.67197 0 6.37832 0 11.9794C0 18.6182 5.37258 24 12 24C17.578 24 22.267 20.1877 23.6122 15.0223C23.7807 14.3752 23.8967 13.707 23.9555 13.0223H11ZM21.5311 15.0223H9V2.41727C4.94512 3.69345 2 7.4908 2 11.9794C2 17.5169 6.48038 22 12 22C16.4617 22 20.2455 19.0698 21.5311 15.0223Z" fill="#0000FF"/>
</svg>
