<svg width="24" height="24" viewBox="0 0 24 24" fill="none" xmlns="http://www.w3.org/2000/svg">
<path d="M19.5 12C20.3284 12 21 11.3284 21 10.5C21 9.67157 20.3284 9 19.5 9C18.6716 9 18 9.67157 18 10.5C18 11.3284 18.6716 12 19.5 12Z" fill="#0000FF"/>
<path fill-rule="evenodd" clip-rule="evenodd" d="M5 0H19V6H21C22.6569 6 24 7.34315 24 9V18H19V24H5V18H0V9C0 7.34315 1.34315 6 3 6H5V0ZM17 2V6H7V2H17ZM2 9C2 8.44772 2.44772 8 3 8H21C21.5523 8 22 8.44771 22 9V16H19V13H5V16H2V9ZM17 15H7V22H17V15Z" fill="#0000FF"/>
</svg>
