<svg width="24" height="24" viewBox="0 0 24 24" fill="none" xmlns="http://www.w3.org/2000/svg">
<path d="M6 14C6 10.6863 8.68629 8 12 8C13.0188 8 13.9783 8.25393 14.8187 8.70196L16.6024 7.45567C15.3008 6.53858 13.7133 6 12 6C7.58172 6 4 9.58172 4 14C4 15.0048 4.18573 15.9686 4.52561 16.8572C4.72291 17.3731 5.30102 17.6313 5.81686 17.434C6.3327 17.2367 6.59094 16.6586 6.39364 16.1428C6.13963 15.4786 6 14.7568 6 14Z" fill="#0000FF"/>
<path d="M18.5477 9.40229L17.3034 11.1914C17.7481 12.0294 18 12.9853 18 14C18 14.7568 17.8604 15.4786 17.6064 16.1428C17.4091 16.6586 17.6673 17.2367 18.1831 17.434C18.699 17.6313 19.2771 17.3731 19.4744 16.8572C19.8143 15.9686 20 15.0048 20 14C20 12.2888 19.4627 10.703 18.5477 9.40229Z" fill="#0000FF"/>
<path d="M14.235 13.8517L19 7L12.1777 11.7667C11.5492 11.7172 10.893 11.9309 10.4085 12.4094C9.52424 13.2817 9.53549 14.7067 10.4085 15.5909C11.2815 16.4759 12.7065 16.4639 13.5907 15.5909C14.0745 15.1132 14.277 14.4809 14.235 13.8517Z" fill="#0000FF"/>
<path fill-rule="evenodd" clip-rule="evenodd" d="M24 14C24 17.0734 22.8446 19.877 20.9444 22H3.05557C1.15541 19.877 0 17.0734 0 14C0 7.37258 5.37258 2 12 2C18.6274 2 24 7.37258 24 14ZM22 14C22 16.2527 21.2572 18.3282 20.0009 20H3.99908C2.74285 18.3282 2 16.2527 2 14C2 8.47715 6.47715 4 12 4C17.5228 4 22 8.47715 22 14Z" fill="#0000FF"/>
</svg>
