<svg width="24" height="24" viewBox="0 0 24 24" fill="none" xmlns="http://www.w3.org/2000/svg">
<path fill-rule="evenodd" clip-rule="evenodd" d="M21.3799 10.214C24.0038 7.59008 24.6115 3.94363 22.7373 2.06942C20.8631 0.195203 17.2167 0.802943 14.5928 3.42685C12.3083 5.71132 11.5521 8.77091 12.6316 10.7612L1.7924 21.6003L3.20662 23.0146L14.0459 12.1753C16.0361 13.2546 19.0955 12.4984 21.3799 10.214ZM21.7726 5.53177C21.943 4.5094 21.685 3.84548 21.3231 3.48363C20.9613 3.12179 20.2973 2.86373 19.275 3.03413C18.2573 3.20374 17.0582 3.78988 16.007 4.84106C14.9558 5.89224 14.3697 7.09135 14.2 8.10906C14.0296 9.13142 14.2877 9.79535 14.6495 10.1572C15.0114 10.519 15.6753 10.7771 16.6977 10.6067C17.7154 10.4371 18.9145 9.85095 19.9657 8.79977C21.0169 7.74859 21.603 6.54948 21.7726 5.53177Z" fill="#0000FF"/>
<path fill-rule="evenodd" clip-rule="evenodd" d="M1.24831 8.54302C-0.20126 7.09345 -0.378664 5.15206 1.03361 3.03148C1.36802 2.52935 1.79157 2.01716 2.30846 1.49908L2.31897 1.48856L10.7011 9.8611L10.6998 9.86237L10.7008 9.86337L9.28658 11.2776L9.28558 11.2766L6.63358 13.9286L1.24831 8.54302ZM7.87137 9.86237L6.63362 11.1001L2.66256 7.12885C2.15579 6.62207 2.01128 6.13563 2.07813 5.6122C2.11658 5.31116 2.23532 4.93171 2.48716 4.48338L7.87137 9.86237Z" fill="#0000FF"/>
<path d="M13.5292 15.5202L14.9434 14.106L22.5904 21.753L21.1762 23.1672L13.5292 15.5202Z" fill="#0000FF"/>
</svg>
