<svg width="24" height="24" viewBox="0 0 24 24" fill="none" xmlns="http://www.w3.org/2000/svg">
<path fill-rule="evenodd" clip-rule="evenodd" d="M14 2H10C9.44771 2 9 2.44772 9 3C9 3.55228 9.44771 4 10 4H11V7.04484C6.06084 7.48993 2.06309 11.1999 1.18138 16C1.06225 16.6486 1 17.317 1 18H23C23 17.317 22.9378 16.6486 22.8186 16C21.9369 11.1999 17.9392 7.48993 13 7.04484V4H14C14.5523 4 15 3.55228 15 3C15 2.44772 14.5523 2 14 2ZM20.777 16C19.8675 11.992 16.2832 9 12 9C7.71683 9 4.13247 11.992 3.22302 16H20.777Z" fill="#0000FF"/>
<path d="M24 20V22H0V20H24Z" fill="#0000FF"/>
</svg>
