<svg width="24" height="24" viewBox="0 0 24 24" fill="none" xmlns="http://www.w3.org/2000/svg">
<path d="M19.0723 16.9639C18.1566 16.9639 17.3373 17.3253 16.7108 17.8916L8.12048 12.8916C8.18072 12.6145 8.22892 12.3373 8.22892 12.0482C8.22892 11.759 8.18072 11.4819 8.12048 11.2048L16.6145 6.25301C17.2651 6.85542 18.1205 7.22892 19.0723 7.22892C21.0723 7.22892 22.6867 5.61446 22.6867 3.61446C22.6867 1.61446 21.0723 0 19.0723 0C17.0723 0 15.4578 1.61446 15.4578 3.61446C15.4578 3.90361 15.506 4.18072 15.5663 4.45783L7.07229 9.40964C6.42169 8.80723 5.56627 8.43373 4.61446 8.43373C2.61446 8.43373 1 10.0482 1 12.0482C1 14.0482 2.61446 15.6627 4.61446 15.6627C5.56627 15.6627 6.42169 15.2892 7.07229 14.6867L15.6506 19.6988C15.5904 19.9518 15.5542 20.2169 15.5542 20.4819C15.5542 22.4217 17.1325 24 19.0723 24C21.012 24 22.5904 22.4217 22.5904 20.4819C22.5904 18.5422 21.012 16.9639 19.0723 16.9639Z" fill="#0000FF"/>
</svg>
