<svg width="24" height="24" viewBox="0 0 24 24" fill="none" xmlns="http://www.w3.org/2000/svg">
<path fill-rule="evenodd" clip-rule="evenodd" d="M21.9396 3.05707L15.6513 9.37651L8.81954 1.69078C9.40147 1.31332 10.0159 0.996663 10.6532 0.743233C12.1941 0.13044 13.8687 -0.112653 15.5404 0.0484215C17.2849 0.216515 18.9485 0.817267 20.3863 1.78261C20.9403 2.15459 21.4609 2.58071 21.9396 3.05707ZM18.9428 3.23322L15.7334 6.45852L12.0894 2.35894C13.1372 2.04438 14.2437 1.93274 15.3486 2.0392C16.6298 2.16265 17.857 2.57437 18.9428 3.23322Z" fill="#0000FF"/>
<path fill-rule="evenodd" clip-rule="evenodd" d="M5.97864 3.08815V16C5.97864 17.1046 6.87407 18 7.97864 18H19.7518C20.6146 18 21.0724 16.9806 20.4992 16.3357L7.21128 1.38673H7.20841C6.45277 0.536029 5.35061 1.62159e-05 4.12326 1.62159e-05C1.88687 1.62159e-05 0.066146 1.77966 0 4.00002H2.00176C2.06652 2.88458 2.99159 2.00002 4.12326 2.00002C4.92037 2.00002 5.61497 2.43887 5.97864 3.08815ZM17.525 16L7.97864 5.26041V16H17.525Z" fill="#0000FF"/>
<path d="M9.97864 21.5C9.97864 22.8807 8.85935 24 7.47864 24C6.09793 24 4.97864 22.8807 4.97864 21.5C4.97864 20.1193 6.09793 19 7.47864 19C8.85935 19 9.97864 20.1193 9.97864 21.5Z" fill="#0000FF"/>
<path d="M22.4786 21.5C22.4786 22.8807 21.3594 24 19.9786 24C18.5979 24 17.4786 22.8807 17.4786 21.5C17.4786 20.1193 18.5979 19 19.9786 19C21.3594 19 22.4786 20.1193 22.4786 21.5Z" fill="#0000FF"/>
</svg>
