<svg width="24" height="24" viewBox="0 0 24 24" fill="none" xmlns="http://www.w3.org/2000/svg">
<path fill-rule="evenodd" clip-rule="evenodd" d="M20.4653 12H21.4286C22.6084 12 23 12.7499 23 13.4999C23 19.2614 18.0745 23.9999 12.0057 23.9999C5.93759 23.9999 1 19.2929 1 13.4999C1 12.7499 1.38988 12 2.57143 12H3.53465C3.51172 11.6706 3.5 11.3371 3.5 11C3.5 4.92487 7.99903 0 12 0C16.001 0 20.5 4.92487 20.5 11C20.5 11.3371 20.4883 11.6706 20.4653 12ZM5.5 11C5.5 11.3387 5.51358 11.6723 5.53996 12H18.46C18.4864 11.6723 18.5 11.3387 18.5 11C18.5 6.24348 15.0362 2 12 2C8.96384 2 5.5 6.24348 5.5 11ZM12.0057 21.9999C7.13622 21.9999 3.28959 18.3794 3.01562 14H20.9842C20.7093 18.3576 16.8683 21.9999 12.0057 21.9999Z" fill="#0000FF"/>
</svg>
