<svg width="24" height="24" viewBox="0 0 24 24" fill="none" xmlns="http://www.w3.org/2000/svg">
<path d="M3 2H5L8 0H16L19 2H21L22 4H2L3 2Z" fill="#0000FF"/>
<path d="M12 19.9996C10.34 19.9996 9 18.6596 9 16.9996C9 14.9996 12 11.5996 12 11.5996C12 11.5996 15 14.9996 15 16.9996C15 18.6596 13.66 19.9996 12 19.9996Z" fill="#0000FF"/>
<path fill-rule="evenodd" clip-rule="evenodd" d="M18.99 22.23C18.87 23.23 18.03 24 17 24H7C5.97 24 5.13 23.23 5.01 22.23L3 5H21L18.99 22.23ZM6.99575 21.9917L5.24688 7H18.7531L17.0042 21.9917C17.0039 21.994 17.0032 21.9969 17.0032 21.9969L17.0025 21.9988L17.0018 22L17 22H7L6.99825 22L6.99754 21.9988L6.99678 21.9969C6.99678 21.9969 6.99608 21.994 6.99575 21.9917Z" fill="#0000FF"/>
</svg>
