<svg width="24" height="24" viewBox="0 0 24 24" fill="none" xmlns="http://www.w3.org/2000/svg">
<path fill-rule="evenodd" clip-rule="evenodd" d="M14 8L14.64 2.43L14.67 2.11C14.67 1.88372 14.6182 1.66657 14.5264 1.47201C14.4729 1.35851 14.4057 1.2527 14.3272 1.15724C14.2965 1.11985 14.2641 1.08405 14.23 1.05L13.17 0L6.58 6.59C6.22 6.95 6 7.45 6 8V18C6 19.1 6.9 20 8 20H17C17.83 20 18.54 19.5 18.84 18.78L21.86 11.73C21.95 11.5 22 10.5 22 10C22 8.5 21.5 8 20 8H14ZM19.9423 11.1276L16.9984 18H8V8L8.00007 7.99836L12.5046 3.49382L11.757 10H20C20 10.1995 19.9894 10.528 19.9686 10.8274C19.9601 10.9492 19.951 11.0509 19.9423 11.1276Z" fill="#0000FF"/>
<path d="M4 8V20H0V8H4Z" fill="#0000FF"/>
</svg>
