<svg width="24" height="24" viewBox="0 0 24 24" fill="none" xmlns="http://www.w3.org/2000/svg">
<g clip-path="url(#clip0_2741_3296)">
<path d="M9.99519 14.5891L17.2923 7.29199L18.7023 8.71199L9.99519 17.4191L5.28809 12.712L6.69809 11.302L9.99519 14.5891Z" fill="#0000FF"/>
<path fill-rule="evenodd" clip-rule="evenodd" d="M24 12C24 5.373 18.628 0 12 0C5.372 0 0 5.373 0 12C0 18.627 5.372 24 12 24C18.628 24 24 18.627 24 12ZM2 12C2 6.477 6.477 2 12 2C17.523 2 22 6.477 22 12C22 17.523 17.523 22 12 22C6.477 22 2 17.523 2 12Z" fill="#0000FF"/>
</g>
<defs>
<clipPath id="clip0_2741_3296">
<rect width="24" height="24" fill="white"/>
</clipPath>
</defs>
</svg>
