<svg width="24" height="24" viewBox="0 0 24 24" fill="none" xmlns="http://www.w3.org/2000/svg">
<path fill-rule="evenodd" clip-rule="evenodd" d="M13 1C13 1.01489 12.9997 1.02971 12.999 1.04445C18.1262 1.48463 22.3322 5.14887 23.5809 10C23.7475 10.6472 23.8615 11.3154 23.918 12H13V20C13 22.2091 11.2091 24 9 24C6.79086 24 5 22.2091 5 20H7C7 21.1046 7.89543 22 9 22C10.1046 22 11 21.1046 11 20V12H0C0.0564953 11.3154 0.170453 10.6472 0.33704 10C1.59242 5.1231 5.83656 1.44575 11.0007 1.03771C11.0002 1.0252 11 1.01262 11 1C11 0.447715 11.4477 0 12 0C12.5523 0 13 0.447715 13 1ZM21.5015 10C20.2275 5.94362 16.4363 3 11.959 3C7.48169 3 3.69045 5.94362 2.41643 10H21.5015Z" fill="#0000FF"/>
</svg>
