<svg width="24" height="24" viewBox="0 0 24 24" fill="none" xmlns="http://www.w3.org/2000/svg">
<path fill-rule="evenodd" clip-rule="evenodd" d="M17 12C17 14.7614 14.7614 17 12 17C9.23858 17 7 14.7614 7 12C7 9.23858 9.23858 7 12 7C14.7614 7 17 9.23858 17 12ZM15 12C15 13.6569 13.6569 15 12 15C10.3431 15 9 13.6569 9 12C9 10.3431 10.3431 9 12 9C13.6569 9 15 10.3431 15 12Z" fill="#0000FF"/>
<path fill-rule="evenodd" clip-rule="evenodd" d="M12 20C17.455 20 22.113 16.683 24 12C22.113 7.317 17.455 4 12 4C6.545 4 1.887 7.317 0 12C1.887 16.683 6.545 20 12 20ZM12 18C7.66904 18 3.9508 15.5387 2.19096 12C3.9508 8.46132 7.66904 6 12 6C16.331 6 20.0492 8.46132 21.809 12C20.0492 15.5387 16.331 18 12 18Z" fill="#0000FF"/>
</svg>
