<svg width="24" height="24" viewBox="0 0 24 24" fill="none" xmlns="http://www.w3.org/2000/svg">
<path fill-rule="evenodd" clip-rule="evenodd" d="M22 16V20C22 21.1046 21.1046 22 20 22H2C0.89543 22 0 21.1046 0 20V4C0 2.89543 0.895431 2 2 2H20C21.1046 2 22 2.89543 22 4V8H23C23.5523 8 24 8.44772 24 9V15C24 15.5523 23.5523 16 23 16H22ZM2 4H20V8H15C14.4477 8 14 8.44772 14 9V15C14 15.5523 14.4477 16 15 16H20V20H2L2 4ZM20 12C20 11.1716 19.3284 10.5 18.5 10.5C17.6716 10.5 17 11.1716 17 12C17 12.8284 17.6716 13.5 18.5 13.5C19.3284 13.5 20 12.8284 20 12Z" fill="#0000FF"/>
</svg>
