<svg width="24" height="24" viewBox="0 0 24 24" fill="none" xmlns="http://www.w3.org/2000/svg">
<path d="M13.2519 7.0241L9.58201 16.1797C8.96051 17.7609 8.339 18.8443 6.45743 18.8443C6.20821 18.8443 5.93037 18.8266 5.65983 18.7791C5.28571 18.6718 5.06513 18.2843 5.16689 17.9083C5.25585 17.5775 5.56295 17.363 5.89198 17.3801C5.91452 17.3819 6.25818 17.4026 6.35628 17.4026C7.37689 17.4026 7.82169 16.7677 8.30122 15.4126L4.88478 7.07772C4.74707 6.65485 4.96277 6.19542 5.38259 6.03761C5.79205 5.88406 6.2466 6.05711 6.43001 6.44524L9.14269 13.2964H9.18291L11.7621 6.49643C11.9072 6.10281 12.3361 5.89686 12.7413 6.02603C13.1538 6.15826 13.3842 6.60915 13.2519 7.0241Z" fill="#0000FF"/>
<path d="M17.2074 7.6275L17.1857 7.63902C16.6751 7.92052 13.2233 10.3389 13.6126 10.6125C14.0002 10.8824 16.3607 9.82038 17.9735 8.93686C18.2788 8.69253 18.3562 8.2526 18.1411 7.91687C17.951 7.62135 17.5952 7.49948 17.274 7.59271C17.2527 7.60337 17.2304 7.61526 17.2074 7.6275Z" fill="#0000FF"/>
<path d="M19.3603 13.2928C17.5214 13.2922 14.9409 13.0869 14.7313 12.6646C14.5217 12.2375 18.7114 11.7781 19.2945 11.7768C19.3292 11.7768 19.3621 11.7768 19.3944 11.7787C19.7198 11.8506 19.9733 12.1296 19.9983 12.4794C20.0245 12.8773 19.7454 13.2258 19.3603 13.2928Z" fill="#0000FF"/>
<path d="M18.1411 17.2302C17.951 17.5251 17.5952 17.6482 17.274 17.555L17.2369 17.5351C17.2282 17.5304 17.2193 17.5257 17.2102 17.5208C17.2022 17.5165 17.194 17.512 17.1857 17.5075C16.6751 17.2266 13.2233 14.8076 13.6126 14.5352C14.0002 14.2641 16.3607 15.3267 17.9735 16.2102C18.2788 16.454 18.3562 16.8945 18.1411 17.2302Z" fill="#0000FF"/>
<path fill-rule="evenodd" clip-rule="evenodd" d="M0 2C0 0.89543 0.895431 0 2 0H22C23.1046 0 24 0.895431 24 2V22C24 23.1046 23.1046 24 22 24H2C0.89543 24 0 23.1046 0 22V2ZM2 2H22V22H2L2 2Z" fill="#0000FF"/>
</svg>
