<svg width="24" height="24" viewBox="0 0 24 24" fill="none" xmlns="http://www.w3.org/2000/svg">
<path d="M12 5C13.375 5 14.5 3.875 14.5 2.5C14.5 1.125 13.375 0 12 0C10.625 0 9.5 1.125 9.5 2.5C9.5 3.875 10.625 5 12 5Z" fill="#0000FF"/>
<path d="M12 6.02203C15.4589 6.02203 19.1989 5.65536 22.3889 4.7998L23 7.24425C20.8297 7.82767 18.3475 8.22171 16 8.43702V24H13V16H11V24H8V8.43702C5.65253 8.22171 3.17031 7.82767 1 7.24425L1.61111 4.7998C4.80111 5.65536 8.54111 6.02203 12 6.02203Z" fill="#0000FF"/>
</svg>
