<svg width="24" height="24" viewBox="0 0 24 24" fill="none" xmlns="http://www.w3.org/2000/svg">
<path d="M20.5 7C20.5 8.933 16.6944 10.5 12 10.5C7.30558 10.5 3.5 8.933 3.5 7C3.5 5.067 7.30558 3.5 12 3.5C16.6944 3.5 20.5 5.067 20.5 7Z" fill="#0000FF"/>
<path fill-rule="evenodd" clip-rule="evenodd" d="M24 18.5V5.5C24 2.46243 18.6274 0 12 0C5.37258 0 0 2.46243 0 5.5V18.5C0 21.5376 5.37258 24 12 24C18.6274 24 24 21.5376 24 18.5ZM12 12.5C14.5427 12.5 16.938 12.0794 18.7719 11.3242C19.6842 10.9486 20.5541 10.4507 21.2271 9.79542C21.9065 9.13403 22.5 8.18867 22.5 7C22.5 5.81133 21.9065 4.86598 21.2271 4.20458C20.5541 3.54935 19.6842 3.0514 18.7719 2.67577C16.938 1.92063 14.5427 1.5 12 1.5C9.45731 1.5 7.06201 1.92063 5.22809 2.67577C4.31585 3.0514 3.44592 3.54935 2.77286 4.20458C2.09348 4.86598 1.5 5.81133 1.5 7C1.5 8.18867 2.09348 9.13403 2.77286 9.79542C3.44592 10.4507 4.31585 10.9486 5.22809 11.3242C7.06201 12.0794 9.45731 12.5 12 12.5ZM2.77285 14.5454C2.19165 13.9796 1.67333 13.206 1.53564 12.25H3.58607C4.17528 13.9461 7.71784 15.25 12 15.25C16.2821 15.25 19.8247 13.9461 20.4139 12.25H22.4643C22.3267 13.206 21.8083 13.9796 21.2271 14.5454C20.5541 15.2007 19.6841 15.6986 18.7719 16.0742C16.938 16.8294 14.5427 17.25 12 17.25C9.4573 17.25 7.062 16.8294 5.22808 16.0742C4.31583 15.6986 3.44591 15.2007 2.77285 14.5454ZM1.53564 17C1.67333 17.956 2.19165 18.7296 2.77285 19.2954C3.44591 19.9507 4.31583 20.4486 5.22808 20.8242C7.062 21.5794 9.4573 22 12 22C14.5427 22 16.938 21.5794 18.7719 20.8242C19.6841 20.4486 20.5541 19.9507 21.2271 19.2954C21.8083 18.7296 22.3267 17.956 22.4643 17H20.4139C19.8247 18.6961 16.2821 20 12 20C7.71784 20 4.17528 18.6961 3.58607 17H1.53564Z" fill="#0000FF"/>
</svg>
