<svg width="24" height="24" viewBox="0 0 24 24" fill="none" xmlns="http://www.w3.org/2000/svg">
<path d="M18.8011 2.64933C18.2858 1.91827 17.3961 2.30744 17.3961 2.97706C17.3961 3.07232 17.4103 3.24045 17.4279 3.44916C17.4967 4.26558 17.6179 5.70291 17.1477 5.8283C16.6431 5.96285 14.8575 4.41955 14.7284 4.01387C14.6926 3.9012 14.8073 3.7051 14.9586 3.44652C15.1263 3.15982 15.339 2.79631 15.4412 2.38452C15.6116 1.69824 14.6076 1 13.5 1C12.5 1 12.1364 1.19316 11.5316 1.74397C11.2659 1.98596 10.9731 2.43484 10.6945 2.86212C10.3389 3.4074 10.0062 3.9175 9.78195 3.9175C9.60423 3.9175 9.42728 3.77784 9.23124 3.62311C8.98602 3.42957 8.71093 3.21244 8.3671 3.21557C7.77768 3.22093 7.36805 3.56534 6.87838 3.97705C5.4733 5.15838 4.14835 6.41016 2.81754 7.66748C2.63921 7.83596 2.46078 8.00454 2.28204 8.17306C0.921071 9.45619 0 10.3246 0 11.5C0 12.5357 0.395835 13.2448 0.861308 14.0787C1.1421 14.5818 1.4023 15.0915 1.63346 15.6191C2.2378 16.9982 2.7656 18.2027 4.90028 18.3034C5.7659 18.3443 6.74147 17.6459 7.74522 16.9274C7.83411 16.8637 7.92326 16.7992 8.01279 16.7344C8.96944 16.0417 9.97131 15.3163 11.1977 15.3163C12.5535 15.3163 13.4253 16.3577 14.2411 17.3322C14.4084 17.532 14.5734 17.7291 14.7397 17.9137C15.3029 18.5392 16.3617 19.715 18.6176 19.715C20.3423 19.715 21.4304 18.3954 21.8934 17.805C22.7915 16.6599 24.0157 13.4878 24 12C23.9795 10.0543 22.5695 8.03397 21.5068 6.51116C20.8045 5.50487 20.1015 4.49912 19.3961 3.495C19.1647 3.16568 18.9615 2.87685 18.8011 2.64933Z" fill="#0000FF"/>
<path d="M17.2629 22.1572C17.3264 22.3027 17.3814 22.4287 17.4 22.5C17.6901 23.1973 18.3562 23.9998 19 24C19.6438 24.0002 20.3996 23.241 20.6 22.875C20.9007 22.3855 21 22.1841 21 21.75C21 21 20.0848 20.9994 19.8 21C19.6638 21.0003 19.2302 21.0002 18.7214 21.0001C18.4251 21.0001 18.1034 21 17.8 21C17.4 21 17 21 17 21.375C17 21.5553 17.1459 21.8893 17.2629 22.1572Z" fill="#0000FF"/>
</svg>
