<svg width="24" height="24" viewBox="0 0 24 24" fill="none" xmlns="http://www.w3.org/2000/svg">
<path d="M22.2388 6.17317C22.7413 7.38642 23 8.68678 23 10H13V0C14.3132 0 15.6136 0.258658 16.8268 0.761205C18.0401 1.26375 19.1425 2.00035 20.0711 2.92893C20.9997 3.85752 21.7362 4.95991 22.2388 6.17317Z" fill="#0000FF"/>
<path fill-rule="evenodd" clip-rule="evenodd" d="M2.38197 10H0V8H3.61803L5.11803 11H22.9871C22.9957 11.1656 23 11.3323 23 11.5C23 13.7036 22.2497 15.732 20.9907 17.3437C21.6186 18.0501 22 18.9805 22 20C22 22.2091 20.2091 24 18 24C15.7909 24 14 22.2091 14 20H11C11 22.2091 9.20914 24 7 24C4.79086 24 3 22.2091 3 20C3 18.3126 4.04481 16.8693 5.52278 16.2816L2.38197 10ZM7 22C8.10457 22 9 21.1046 9 20C9 18.8954 8.10457 18 7 18C5.89543 18 5 18.8954 5 20C5 21.1046 5.89543 22 7 22ZM18 22C19.1046 22 20 21.1046 20 20C20 18.8954 19.1046 18 18 18C16.8954 18 16 18.8954 16 20C16 21.1046 16.8954 22 18 22Z" fill="#0000FF"/>
</svg>
