<svg width="24" height="24" viewBox="0 0 24 24" fill="none" xmlns="http://www.w3.org/2000/svg">
<path d="M17.4142 1L18.8284 2.41421L16.7094 4.53233C17.9078 5.40644 18.854 6.60554 19.4185 8.00003L23 8V10L19.9381 10C19.979 10.3276 20 10.6614 20 11V12H23V14H20V15C20 15.339 19.9789 15.6731 19.938 16.001L23 16V18L19.4181 18.001C18.2311 20.9323 15.357 23 12 23C8.64299 23 5.76892 20.9323 4.58191 18.001L1 18V16L4.06201 16.001C4.02108 15.6731 4 15.339 4 15V14H1V12H4V11L4.00381 10.7508C4.01156 10.4974 4.0311 10.247 4.06189 10L1 10V8L4.58151 8.00003C5.14597 6.60554 6.09222 5.40644 7.29063 4.53233L5.17157 2.41421L6.58579 1L9.11917 3.53439C10.013 3.18924 10.9844 3 12 3C13.0156 3 13.987 3.18924 14.8808 3.53439L17.4142 1ZM16 14H8V16H16V14ZM16 10H8V12H16V10Z" fill="#0000FF"/>
</svg>
