<svg width="24" height="24" viewBox="0 0 24 24" fill="none" xmlns="http://www.w3.org/2000/svg">
<path d="M18 6C18 9.315 15.315 12 12 12C8.685 12 6 9.315 6 6C6 2.685 8.685 0 12 0C15.315 0 18 2.685 18 6Z" fill="#0000FF"/>
<path d="M9.16577 15.221L11.7392 18.6522L10 24H14L12.2609 18.6522L14.8343 15.221C13.7919 15.0737 12.8136 15 12 15C11.1865 15 10.2082 15.0737 9.16577 15.221Z" fill="#0000FF"/>
<path d="M8 15.4121C4.17331 16.1271 0 17.7708 0 20.3332V23.9999H8V15.4121Z" fill="#0000FF"/>
<path d="M16 23.9999H24V20.3332C24 17.7708 19.8267 16.1271 16 15.4121V23.9999Z" fill="#0000FF"/>
</svg>
