<svg width="24" height="24" viewBox="0 0 24 24" fill="none" xmlns="http://www.w3.org/2000/svg">
<path fill-rule="evenodd" clip-rule="evenodd" d="M2 0C0.895431 0 0 0.89543 0 2V22C0 23.1046 0.89543 24 2 24H22C23.1046 24 24 23.1046 24 22V2C24 0.895431 23.1046 0 22 0H2ZM18.7175 10.1315L16.9497 8.36377L15.182 10.1315L13.7677 8.71733L15.5355 6.94956L13.7677 5.18179L15.182 3.76758L16.9497 5.53535L18.7175 3.76758L20.1317 5.18179L18.3639 6.94956L20.1317 8.71733L18.7175 10.1315ZM10.6667 5.99935H4V7.99935H10.6667V5.99935ZM13.3334 13.333H20V15.333H13.3334V13.333ZM13.3334 16.6663H20V18.6663H13.3334V16.6663ZM6.33333 16.6663V18.9997H8.33333V16.6663H10.6667V14.6663H8.33333V12.333H6.33333V14.6663H4V16.6663H6.33333Z" fill="#0000FF"/>
</svg>
