<svg width="24" height="24" viewBox="0 0 24 24" fill="none" xmlns="http://www.w3.org/2000/svg">
<path fill-rule="evenodd" clip-rule="evenodd" d="M2 4C0.895431 4 0 4.89543 0 6V18C0 19.1046 0.89543 20 2 20H22C23.1046 20 24 19.1046 24 18V6C24 4.89543 23.1046 4 22 4H2ZM3.5 13.6898H5.06519C5.14049 14.3374 5.80744 14.7618 6.66803 14.7618C7.53399 14.7618 8.12564 14.3428 8.12564 13.7659C8.12564 13.2544 7.75452 12.9714 6.81863 12.7592L5.80744 12.536C4.37672 12.2258 3.67212 11.4912 3.67212 10.3429C3.67212 9.08119 4.6119 8.19156 6 7.98389V7H7.25V7.97579C8.69992 8.16551 9.58642 9.04598 9.61016 10.2994H8.08799C8.03421 9.63542 7.45869 9.23271 6.64651 9.23271C5.84509 9.23271 5.30723 9.6191 5.30723 10.2014C5.30723 10.6857 5.68373 10.9578 6.57659 11.1646L7.51786 11.366C9.07229 11.7034 9.75 12.3782 9.75 13.5755C9.75 14.9209 8.7982 15.8293 7.25 16.0235V17H6V16.0289C4.48408 15.8532 3.54296 14.9987 3.5 13.6898ZM18 10H12V12H18V10ZM20 14H12V16H20V14Z" fill="#0000FF"/>
</svg>
