<svg width="24" height="24" viewBox="0 0 24 24" fill="none" xmlns="http://www.w3.org/2000/svg">
<path fill-rule="evenodd" clip-rule="evenodd" d="M0 4C0 2.89543 0.895431 2 2 2H17V5H19.5554C20.2237 5 20.8478 5.33376 21.2188 5.88955L23.6634 9.55134C23.8829 9.8801 24 10.2665 24 10.6618V19H21.9646C21.7219 20.6961 20.2632 22 18.5 22C16.7368 22 15.2781 20.6961 15.0354 19H8.96456C8.72194 20.6961 7.26324 22 5.5 22C3.73676 22 2.27806 20.6961 2.03544 19H0V4ZM17 11H22V10.6618L19.5554 7H17V11ZM5.5 20C6.32843 20 7 19.3284 7 18.5C7 17.6716 6.32843 17 5.5 17C4.67157 17 4 17.6716 4 18.5C4 19.3284 4.67157 20 5.5 20ZM18.5 20C19.3284 20 20 19.3284 20 18.5C20 17.6716 19.3284 17 18.5 17C17.6716 17 17 17.6716 17 18.5C17 19.3284 17.6716 20 18.5 20Z" fill="#0000FF"/>
</svg>
