<svg width="24" height="24" viewBox="0 0 24 24" fill="none" xmlns="http://www.w3.org/2000/svg">
<path fill-rule="evenodd" clip-rule="evenodd" d="M12 24C18.6278 24 24 18.627 24 12C24 5.373 18.6278 0 12 0C5.37225 0 0 5.373 0 12C0 18.627 5.37225 24 12 24ZM11.8966 19.9574C8.95895 19.9574 6.39114 18.374 5 16.0142L6.72414 15C7.7675 16.7699 9.69335 17.9574 11.8966 17.9574C14.0998 17.9574 16.0256 16.7699 17.069 15L18.7931 16.0142C17.402 18.374 14.8342 19.9574 11.8966 19.9574ZM15 8.25C15 9.07875 15.6713 9.75 16.5 9.75C17.3288 9.75 18 9.07875 18 8.25C18 7.42125 17.3288 6.75 16.5 6.75C15.6713 6.75 15 7.42125 15 8.25ZM7.5 6.75C6.67125 6.75 6 7.42125 6 8.25C6 9.07875 6.67125 9.75 7.5 9.75C8.32875 9.75 9 9.07875 9 8.25C9 7.42125 8.32875 6.75 7.5 6.75Z" fill="#0000FF"/>
</svg>
