<svg width="24" height="24" viewBox="0 0 24 24" fill="none" xmlns="http://www.w3.org/2000/svg">
<path d="M11.998 0.033959C17.795 0.033959 22.494 4.73096 22.494 10.525C22.494 19.198 14.411 22.782 11.998 23.989V21.016C6.20101 21.016 1.50201 16.319 1.50201 10.526C1.50201 4.72996 6.20201 0.032959 11.998 0.032959V0.033959ZM7.20901 7.60096C5.32801 7.60096 3.92701 8.88696 3.92701 10.794V10.864C3.92701 12.736 5.08301 14.057 7.20901 14.057C9.23101 14.057 10.272 12.859 10.272 11.267V10.497H7.33201V11.747H8.50501C8.46901 12.247 8.13701 12.692 7.26201 12.692C6.17701 12.692 5.80001 11.905 5.80001 10.89V10.82C5.80001 9.69196 6.33401 9.00996 7.21801 9.00996C7.88301 9.00996 8.26001 9.31596 8.34701 9.90196H10.124C10.001 8.27496 8.68801 7.60196 7.20901 7.60196V7.60096ZM15.121 7.69796H10.798V13.952H15.261V12.57H12.583V11.433H14.605V10.156H12.583V9.07996H15.121V7.69796ZM17.607 7.69796H15.804V13.952H19.97V12.562H17.607V7.69696V7.69796Z" fill="#0000FF"/>
</svg>
