<svg width="24" height="24" viewBox="0 0 24 24" fill="none" xmlns="http://www.w3.org/2000/svg">
<path fill-rule="evenodd" clip-rule="evenodd" d="M5 4C5 1.79086 6.79086 0 9 0C10.1947 0 11.2671 0.523755 12 1.35418C12.7329 0.523755 13.8053 0 15 0C17.2091 0 19 1.79086 19 4C19 4.72857 18.8052 5.41165 18.4649 6H22C23.1046 6 24 6.89543 24 8V14H0V8C0 6.89543 0.895431 6 2 6H5.53513C5.19479 5.41165 5 4.72857 5 4ZM17 4C17 5.10457 16.1046 6 15 6C13.8954 6 13 5.10457 13 4C13 2.89543 13.8954 2 15 2C16.1046 2 17 2.89543 17 4ZM11 4C11 5.10457 10.1046 6 9 6C7.89543 6 7 5.10457 7 4C7 2.89543 7.89543 2 9 2C10.1046 2 11 2.89543 11 4ZM10.2538 6.9996L6.91287 11.4765L8.51641 12.6718L12.0014 8.00171L15.4865 12.6718L17.09 11.4765L13.7491 6.9996C13.7491 6.9996 13.0592 6 12 6C10.9408 6 10.2538 6.9996 10.2538 6.9996Z" fill="#0000FF"/>
<path d="M1 22V16H23V22C23 23.1046 22.1046 24 21 24H3C1.89543 24 1 23.1046 1 22Z" fill="#0000FF"/>
</svg>
