<svg width="24" height="24" viewBox="0 0 24 24" fill="none" xmlns="http://www.w3.org/2000/svg">
<path fill-rule="evenodd" clip-rule="evenodd" d="M2 0C0.895431 0 0 0.89543 0 2V22C0 23.1046 0.89543 24 2 24H22C23.1046 24 24 23.1046 24 22V2C24 0.895431 23.1046 0 22 0H2ZM9.09091 13.1091H11.9782C11.8618 13.8582 11.1055 15.3055 9.09091 15.3055C7.35273 15.3055 5.93455 13.8655 5.93455 12.0909C5.93455 10.3164 7.35273 8.87636 9.09091 8.87636C10.08 8.87636 10.7418 9.29818 11.12 9.66182L12.5018 8.33091C11.6145 7.50182 10.4655 7 9.09091 7C6.27636 7 4 9.27636 4 12.0909C4 14.9055 6.27636 17.1818 9.09091 17.1818C12.0291 17.1818 13.9782 15.1164 13.9782 12.2073C13.9782 11.8727 13.9418 11.6182 13.8982 11.3636L9.09091 11.36V13.1091ZM16.8002 11.3598H15.2002V12.9598H16.8002V14.5598H18.4002V12.9598H20.0002V11.3598H18.4002V9.75977H16.8002V11.3598Z" fill="#0000FF"/>
</svg>
