<svg width="24" height="24" viewBox="0 0 24 24" fill="none" xmlns="http://www.w3.org/2000/svg">
<path fill-rule="evenodd" clip-rule="evenodd" d="M9.00569 2.8137C9.10188 1.24362 10.4057 0 12 0C13.5943 0 14.8981 1.24362 14.9943 2.8137C16.4021 2.11197 18.1311 2.6193 18.9282 4C19.7253 5.3807 19.3003 7.13165 17.9886 8C19.3003 8.86835 19.7253 10.6193 18.9282 12C18.1311 13.3807 16.4021 13.888 14.9943 13.1863C14.8981 14.7564 13.5943 16 12 16C10.4057 16 9.10188 14.7564 9.00569 13.1863C7.59786 13.888 5.86894 13.3807 5.0718 12C4.27465 10.6193 4.69975 8.86835 6.01138 8C4.69975 7.13165 4.27465 5.3807 5.0718 4C5.86894 2.6193 7.59786 2.11197 9.00569 2.8137ZM12 11C13.6569 11 15 9.65685 15 8C15 6.34315 13.6569 5 12 5C10.3431 5 9 6.34315 9 8C9 9.65685 10.3431 11 12 11Z" fill="#0000FF"/>
<path d="M2 14C2 19.5222 6.47778 24 12 24C12 18.4778 7.52222 14 2 14Z" fill="#0000FF"/>
<path d="M22 14C16.4778 14 12 18.4778 12 24C17.5222 24 22 19.5222 22 14Z" fill="#0000FF"/>
</svg>
