<svg width="24" height="24" viewBox="0 0 24 24" fill="none" xmlns="http://www.w3.org/2000/svg">
<path fill-rule="evenodd" clip-rule="evenodd" d="M17.408 13.9565C17.6012 13.9852 17.7989 14 18 14C20.2091 14 22 12.2091 22 10C22 8.11613 20.6977 6.53644 18.9442 6.1121C18.5079 2.66532 15.5652 0 12 0C8.43478 0 5.49209 2.66532 5.05578 6.11209C3.30232 6.53643 2 8.11613 2 10C2 12.2091 3.79086 14 6 14C6.20113 14 6.3988 13.9852 6.59196 13.9565L12 24L17.408 13.9565ZM12 14C13.2574 14 14.4374 13.6685 15.4573 13.088C15.4911 13.1159 15.5254 13.1432 15.5601 13.1699L12 19.7815L8.43992 13.1699C8.47463 13.1432 8.50888 13.1159 8.54266 13.088C9.56257 13.6685 10.7426 14 12 14Z" fill="#0000FF"/>
</svg>
