<svg width="24" height="24" viewBox="0 0 24 24" fill="none" xmlns="http://www.w3.org/2000/svg">
<path fill-rule="evenodd" clip-rule="evenodd" d="M2 2H22C23.1046 2 24 2.89543 24 4V20C24 21.1046 23.1046 22 22 22H2C0.89543 22 0 21.1046 0 20V4C0 2.89543 0.89543 2 2 2ZM11.5 10.5C11.5 9.11667 10.3833 8 9 8C7.61667 8 6.5 9.11667 6.5 10.5C6.5 11.8833 7.61667 13 9 13C10.3833 13 11.5 11.8833 11.5 10.5ZM4 17.0854V18H14V17.0854C14 15.2561 10.6667 14.25 9 14.25C7.33333 14.25 4 15.2561 4 17.0854ZM14 8H20V10H14V8ZM15 12H20V14H15V12ZM20 16H16V18H20V16Z" fill="#0000FF"/>
</svg>
