<svg width="24" height="24" viewBox="0 0 24 24" fill="none" xmlns="http://www.w3.org/2000/svg">
<path d="M12 8C9.79125 8 8.00025 9.791 8.00025 11.9998C8.00025 14.2085 9.79125 15.9995 12 15.9995C14.2087 15.9995 15.9998 14.2085 15.9998 11.9998C15.9998 9.791 14.2087 8 12 8Z" fill="#0000FF"/>
<path fill-rule="evenodd" clip-rule="evenodd" d="M6 0H18C21.3137 0 24 2.68629 24 6V18C24 21.3137 21.3137 24 18 24H6C2.68629 24 0 21.3137 0 18V6C0 2.68629 2.68629 0 6 0ZM12 18.1619C8.5965 18.1619 5.838 15.4034 5.838 11.9999C5.838 8.59639 8.5965 5.83789 12 5.83789C15.4035 5.83789 18.162 8.59639 18.162 11.9999C18.162 15.4034 15.4035 18.1619 12 18.1619ZM16.9657 5.5943C16.9657 6.39005 17.6107 7.0343 18.4057 7.0343C19.2014 7.0343 19.8457 6.39005 19.8457 5.5943C19.8457 4.79855 19.2014 4.1543 18.4057 4.1543C17.6107 4.1543 16.9657 4.79855 16.9657 5.5943Z" fill="#0000FF"/>
</svg>
