<svg width="24" height="24" viewBox="0 0 24 24" fill="none" xmlns="http://www.w3.org/2000/svg">
<path fill-rule="evenodd" clip-rule="evenodd" d="M22 12V2.00004L12.0288 2.00004L12 2C6.47715 2 2 6.47715 2 12C2 14.2292 2.72939 16.288 3.96252 17.9508L2.46302 19.4503C1.87723 20.0361 1.87723 20.9858 2.46302 21.5716C3.0488 22.1574 3.99855 22.1574 4.58434 21.5716L6.08906 20.0669C7.74486 21.2822 9.7886 22 12 22C17.5228 22 22 17.5229 22 12ZM17.1944 6.84038C17.5849 7.2309 17.5849 7.86407 17.1944 8.25459L9.19441 16.2546C8.80389 16.6451 8.17072 16.6451 7.7802 16.2546C7.38967 15.8641 7.38967 15.2309 7.7802 14.8404L15.7802 6.84038C16.1707 6.44985 16.8039 6.44985 17.1944 6.84038Z" fill="#0000FF"/>
</svg>
