<svg width="24" height="24" viewBox="0 0 24 24" fill="none" xmlns="http://www.w3.org/2000/svg">
<path d="M6 7.52395L19.6286 2.07251C20.2855 1.80976 21 2.29352 21 3.00099V20.0469C21 20.7544 20.2855 21.2381 19.6286 20.9754L8 16.324V21.524C8 22.0762 7.55228 22.524 7 22.524C6.44772 22.524 6 22.0762 6 21.524V7.52395Z" fill="#0000FF"/>
<path d="M2 7.52395C0.895431 7.52395 0 8.41938 0 9.52395V13.524C0 14.6285 0.895431 15.524 2 15.524H4V7.52395H2Z" fill="#0000FF"/>
<path d="M23 9.52395H22V13.524H23C23.5523 13.524 24 13.0762 24 12.524V10.524C24 9.97167 23.5523 9.52395 23 9.52395Z" fill="#0000FF"/>
</svg>
