<svg width="24" height="24" viewBox="0 0 24 24" fill="none" xmlns="http://www.w3.org/2000/svg">
<path d="M6 0C4.89543 0 4 0.89543 4 2V22C4 23.1046 4.89543 24 6 24H16C17.1046 24 18 23.1046 18 22V13H15.584C14.8124 14.7659 13.0503 16 11 16C8.23858 16 6 13.7614 6 11C6 8.94968 7.2341 7.1876 9 6.41604V0H6Z" fill="#0000FF"/>
<path d="M11 2V0C17.08 0 22 4.92 22 11H20C20 6.03 15.97 2 11 2Z" fill="#0000FF"/>
<path d="M11 6V4C14.87 4 18 7.13 18 11H16C16 8.24 13.76 6 11 6Z" fill="#0000FF"/>
<path d="M14 11C14 12.6569 12.6569 14 11 14C9.34315 14 8 12.6569 8 11C8 9.34315 9.34315 8 11 8C12.6569 8 14 9.34315 14 11Z" fill="#0000FF"/>
</svg>
