<svg width="24" height="24" viewBox="0 0 24 24" fill="none" xmlns="http://www.w3.org/2000/svg">
<path d="M2.14761 18.8524C4.31568 21.9638 7.91995 24 12 24C18.6278 24 24 18.627 24 12C24 5.373 18.6278 0 12 0C7.91995 0 4.31568 2.03618 2.14761 5.14761L3.58899 6.58899C5.3688 3.8281 8.47091 2 12 2C17.5228 2 22 6.47715 22 12C22 17.5228 17.5228 22 12 22C8.47091 22 5.3688 20.1719 3.58899 17.411L2.14761 18.8524Z" fill="#0000FF"/>
<path d="M0 6L6 12L0 18V6Z" fill="#0000FF"/>
<path d="M7 14.7036C7.06874 16.7978 8.57453 18.1651 11 18.4462V20H13V18.4377C15.4771 18.1268 17 16.6734 17 14.5208C17 12.6052 15.9157 11.5255 13.4286 10.9856L11.9225 10.6634C10.494 10.3326 9.89157 9.89719 9.89157 9.12224C9.89157 8.19056 10.7522 7.57234 12.0344 7.57234C13.3339 7.57234 14.2547 8.21668 14.3408 9.27897H16.7762C16.7383 7.27356 15.3199 5.86481 13 5.56127V4H11V5.57422C8.77904 5.90649 7.27539 7.3299 7.27539 9.34863C7.27539 11.1859 8.40275 12.3614 10.6919 12.8577L12.3098 13.2147C13.8072 13.5543 14.401 14.007 14.401 14.8255C14.401 15.7485 13.4544 16.419 12.0688 16.419C10.6919 16.419 9.62478 15.7398 9.5043 14.7036H7Z" fill="#0000FF"/>
</svg>
