<svg width="24" height="24" viewBox="0 0 24 24" fill="none" xmlns="http://www.w3.org/2000/svg">
<path d="M7.7217 4.66577C9.07026 4.23343 10.5079 4 12 4C13.4921 4 14.9297 4.23343 16.2783 4.66577L19 0H5L7.7217 4.66577Z" fill="#0000FF"/>
<path fill-rule="evenodd" clip-rule="evenodd" d="M21.241 24C21.955 24 22.627 23.6247 22.9233 22.9752C23.6147 21.4595 24 19.7747 24 18C24 11.3726 18.6274 6 12 6C5.37258 6 0 11.3726 0 18C0 19.7747 0.385266 21.4595 1.07673 22.9752C1.37304 23.6247 2.04504 24 2.75897 24H21.241ZM10.2842 17.3587H8.5625C8.60976 18.7985 9.64499 19.7385 11.3125 19.9318V21H12.6875V19.9259C14.3905 19.7122 15.4375 18.7129 15.4375 17.233C15.4375 15.916 14.692 15.1737 12.9821 14.8026L11.9468 14.5811C10.9646 14.3536 10.5505 14.0543 10.5505 13.5215C10.5505 12.881 11.1421 12.456 12.0237 12.456C12.9171 12.456 13.5501 12.899 13.6093 13.6293H15.2837C15.2576 12.2506 14.2824 11.2821 12.6875 11.0734V10H11.3125V11.0823C9.78559 11.3107 8.75183 12.2893 8.75183 13.6772C8.75183 14.9403 9.52689 15.7484 11.1007 16.0896L12.213 16.3351C13.2425 16.5685 13.6507 16.8798 13.6507 17.4425C13.6507 18.0771 12.9999 18.538 12.0473 18.538C11.1007 18.538 10.367 18.0711 10.2842 17.3587Z" fill="#0000FF"/>
</svg>
