<svg width="24" height="24" viewBox="0 0 24 24" fill="none" xmlns="http://www.w3.org/2000/svg">
<path fill-rule="evenodd" clip-rule="evenodd" d="M21.8524 18.8524C19.6843 21.9638 16.0801 24 12 24C5.37225 24 0 18.627 0 12C0 5.373 5.37225 0 12 0C16.0801 0 19.6843 2.03618 21.8524 5.14761L20.411 6.58899C18.6312 3.8281 15.5291 2 12 2C6.47715 2 2 6.47715 2 12C2 17.5228 6.47715 22 12 22C15.5291 22 18.6312 20.1719 20.411 17.411L21.8524 18.8524ZM18 6L24 12L18 18V6ZM6 14.7036C6.06874 16.7978 7.57453 18.1651 10 18.4462V20H12V18.4377C14.4771 18.1268 16 16.6734 16 14.5208C16 12.6052 14.9157 11.5255 12.4286 10.9856L10.9225 10.6634C9.49398 10.3326 8.89157 9.89719 8.89157 9.12224C8.89157 8.19056 9.75215 7.57234 11.0344 7.57234C12.3339 7.57234 13.2547 8.21668 13.3408 9.27897H15.7762C15.7383 7.27356 14.3199 5.86481 12 5.56127V4H10V5.57422C7.77904 5.90649 6.27539 7.3299 6.27539 9.34863C6.27539 11.1859 7.40275 12.3614 9.69191 12.8577L11.3098 13.2147C12.8072 13.5543 13.401 14.007 13.401 14.8255C13.401 15.7485 12.4544 16.419 11.0688 16.419C9.69191 16.419 8.62478 15.7398 8.5043 14.7036H6Z" fill="#0000FF"/>
</svg>
