<svg width="24" height="24" viewBox="0 0 24 24" fill="none" xmlns="http://www.w3.org/2000/svg">
<path d="M20 11C20 7.27232 17.4505 4.14012 14 3.25203V2C14 0.89543 13.1046 0 12 0C10.8954 0 10 0.89543 10 2V3.25203C6.54955 4.14012 4 7.27232 4 11V17L2 19V20H22V19L20 17V11Z" fill="#0000FF"/>
<path d="M12.0015 24C10.3438 24 9 22.6569 9 21H15.003C15.003 22.6569 13.6592 24 12.0015 24Z" fill="#0000FF"/>
<path d="M0.0410767 10C0.316289 6.66402 1.95605 3.71495 4.40092 1.71223L5.66744 3.2602C3.67085 4.8957 2.31859 7.28854 2.04938 10H0.0410767Z" fill="#0000FF"/>
<path d="M19.5991 1.71223C22.044 3.71495 23.6837 6.66402 23.9589 10H21.9506C21.6814 7.28854 20.3292 4.8957 18.3326 3.2602L19.5991 1.71223Z" fill="#0000FF"/>
</svg>
