<svg width="24" height="24" viewBox="0 0 24 24" fill="none" xmlns="http://www.w3.org/2000/svg">
<path d="M9.99995 3.25203V2C9.99995 0.89543 10.8954 0 12 0C13.1045 0 14 0.89543 14 2V3.25203C17.4504 4.14012 20 7.27232 20 11V16.4227L7.7797 4.20243C8.45859 3.78005 9.20539 3.45654 9.99995 3.25203Z" fill="#0000FF"/>
<path d="M8.99995 21C8.99995 22.6569 10.3438 24 12.0015 24C13.6591 24 15.003 22.6569 15.003 21H8.99995Z" fill="#0000FF"/>
<path d="M0.964722 3.03523L2.37894 1.62102L22.3789 21.621L20.9647 23.0352L17.9295 20H1.99995V19L3.99995 17V11C3.99995 9.5797 4.37007 8.24585 5.01913 7.08964L0.964722 3.03523Z" fill="#0000FF"/>
</svg>
