<svg width="24" height="24" viewBox="0 0 24 24" fill="none" xmlns="http://www.w3.org/2000/svg">
<path fill-rule="evenodd" clip-rule="evenodd" d="M0.053006 0.679823C0.229985 0.156663 0.79756 -0.123973 1.32072 0.053006L3.72221 0.865403C4.67238 1.18683 5.39903 1.96186 5.65864 2.93074L9.2639 16.3857L7.33205 16.9034L3.72679 3.44838C3.64026 3.12542 3.39804 2.86708 3.08132 2.75993L0.679823 1.94754C0.156663 1.77056 -0.123973 1.20298 0.053006 0.679823Z" fill="#0000FF"/>
<path d="M22.149 18.1095C22.6824 17.9665 22.999 17.4182 22.8561 16.8847C22.7131 16.3512 22.1648 16.0347 21.6313 16.1776C21.6262 16.179 21.6212 16.1804 21.6161 16.1818L12.938 18.5071L13.4557 20.4389L22.149 18.1095Z" fill="#0000FF"/>
<path d="M12.2309 19.7318C12.6598 21.3322 11.71 22.9773 10.1096 23.4061C8.50921 23.8349 6.8642 22.8852 6.43537 21.2848C6.00655 19.6844 6.95629 18.0393 8.55669 17.6105C10.1571 17.1817 11.8021 18.1314 12.2309 19.7318Z" fill="#0000FF"/>
<path d="M8.34861 5.24284C8.06273 4.1759 8.69589 3.07923 9.76282 2.79335L17.4902 0.722795C18.5572 0.436912 19.6538 1.07008 19.9397 2.13701L22.5279 11.7963C22.8138 12.8632 22.1806 13.9599 21.1137 14.2458L13.3863 16.3163C12.3194 16.6022 11.2227 15.969 10.9368 14.9021L8.34861 5.24284Z" fill="#0000FF"/>
</svg>
