<svg width="24" height="24" viewBox="0 0 24 24" fill="none" xmlns="http://www.w3.org/2000/svg">
<path fill-rule="evenodd" clip-rule="evenodd" d="M4 8H6V6C6 2.68629 8.68629 0 12 0C15.3137 0 18 2.68629 18 6V8H20C21.1046 8 22 8.89543 22 10V22C22 23.1046 21.1046 24 20 24H4C2.89543 24 2 23.1046 2 22V10C2 8.89543 2.89543 8 4 8ZM16 6V8H8V6C8 3.79086 9.79086 2 12 2C14.2091 2 16 3.79086 16 6ZM10.7021 17.4679L16.585 11.585L17.995 13.005L10.7021 20.2979L6.70211 16.2979L8.11211 14.8879L10.7021 17.4679Z" fill="#0000FF"/>
</svg>
