<svg width="24" height="24" viewBox="0 0 24 24" fill="none" xmlns="http://www.w3.org/2000/svg">
<path d="M11 3.99999C11 6.20913 9.76877 7.99999 8.24999 7.99999C6.73121 7.99999 5.49999 6.20913 5.49999 3.99999C5.49999 1.79086 6.73121 0 8.24999 0C9.76877 0 11 1.79086 11 3.99999Z" fill="#0000FF"/>
<path d="M18.5 3.99999C18.5 6.20913 17.2688 7.99999 15.75 7.99999C14.2312 7.99999 13 6.20913 13 3.99999C13 1.79086 14.2312 0 15.75 0C17.2688 0 18.5 1.79086 18.5 3.99999Z" fill="#0000FF"/>
<path d="M21.25 15C22.7688 15 24 13.2091 24 11C24 8.79085 22.7688 6.99999 21.25 6.99999C19.7312 6.99999 18.5 8.79085 18.5 11C18.5 13.2091 19.7312 15 21.25 15Z" fill="#0000FF"/>
<path d="M5.49999 11C5.49999 13.2091 4.26878 15 2.75 15C1.23122 15 0 13.2091 0 11C0 8.79085 1.23122 6.99999 2.75 6.99999C4.26878 6.99999 5.49999 8.79085 5.49999 11Z" fill="#0000FF"/>
<path d="M12 9.49999C13.933 9.49999 15.5 11.067 15.5 13C15.5 14.0851 16.442 14.7464 17.5083 15.4948C18.8985 16.4706 20.5 17.5947 20.5 20C20.5 22.2091 18.7091 24 16.5 24C15.0912 24 14.3175 23.5237 13.6421 23.1078C13.1189 22.7858 12.6547 22.5 12 22.5C11.3452 22.5 10.881 22.7858 10.3579 23.1078C9.68245 23.5237 8.90876 24 7.49999 24C5.29085 24 3.5 22.2091 3.5 20C3.5 17.5947 5.10144 16.4706 6.49169 15.4948C7.55796 14.7464 8.49999 14.0851 8.49999 13C8.49999 11.067 10.067 9.49999 12 9.49999Z" fill="#0000FF"/>
</svg>
