<svg width="24" height="24" viewBox="0 0 24 24" fill="none" xmlns="http://www.w3.org/2000/svg">
<path d="M6 2C6 0.89543 6.89543 0 8 0H18C19.1046 0 20 0.895431 20 2V22C20 23.1046 19.1046 24 18 24H10V22H17.8471C17.9478 21.3481 18 20.6801 18 20C18 13.1568 12.7124 7.54851 6 7.03789V2Z" fill="#0000FF"/>
<path d="M5 9V11C9.97 11 14 15.03 14 20H16C16 13.92 11.08 9 5 9Z" fill="#0000FF"/>
<path d="M5 15V13C8.87 13 12 16.13 12 20H10C10 17.24 7.76 15 5 15Z" fill="#0000FF"/>
<path d="M8 20C8 18.34 6.66 17 5 17C3.34315 17 2 18.3431 2 20C2 21.6569 3.34315 23 5 23C6.65685 23 8 21.6569 8 20Z" fill="#0000FF"/>
</svg>
