<svg width="24" height="24" viewBox="0 0 24 24" fill="none" xmlns="http://www.w3.org/2000/svg">
<path d="M19 12C19 7.58171 17.2091 3.58171 14.3137 0.686279L12.8995 2.10049C15.433 4.63399 17 8.13399 17 12C17 15.866 15.433 19.366 12.8995 21.8995L14.3137 23.3137C17.2091 20.4183 19 16.4183 19 12Z" fill="#0000FF"/>
<path d="M15 12C15 8.68628 13.6568 5.68628 11.4853 3.51471L10.071 4.92892C11.8807 6.73856 13 9.23856 13 12C13 14.7614 11.8807 17.2614 10.071 19.0711L11.4853 20.4853C13.6568 18.3137 15 15.3137 15 12Z" fill="#0000FF"/>
<path d="M8.65683 6.34313C10.1045 7.79085 11 9.79085 11 12C11 14.2091 10.1045 16.2091 8.65683 17.6568L7.24261 16.2426C8.3284 15.1568 8.99997 13.6568 8.99997 12C8.99997 10.3431 8.3284 8.84313 7.24261 7.75735L8.65683 6.34313Z" fill="#0000FF"/>
<path d="M6.99997 12C6.99997 10.8954 6.55226 9.89542 5.8284 9.17156L4.41418 10.5858C4.77611 10.9477 4.99997 11.4477 4.99997 12C4.99997 12.5523 4.77611 13.0523 4.41418 13.4142L5.8284 14.8284C6.55226 14.1046 6.99997 13.1046 6.99997 12Z" fill="#0000FF"/>
</svg>
