<svg width="24" height="24" viewBox="0 0 24 24" fill="none" xmlns="http://www.w3.org/2000/svg">
<path d="M14 7C14 4.2375 11.7625 2 9 2C6.2375 2 4 4.2375 4 7C4 9.7625 6.2375 12 9 12C11.7625 12 14 9.7625 14 7Z" fill="#0000FF"/>
<path d="M15 12C14.6574 12 14.3229 11.9656 13.9998 11.9C15.2372 10.6376 16 8.90816 16 7C16 5.09184 15.2372 3.36242 13.9998 2.09996C14.3229 2.03441 14.6574 2 15 2C17.7625 2 20 4.2375 20 7C20 9.7625 17.7625 12 15 12Z" fill="#0000FF"/>
<path d="M24 18C24 16.016 20.6642 14.7663 17.7224 14.2593C19.1127 15.2143 20 16.4655 20 18V22H24V18Z" fill="#0000FF"/>
<path d="M0 22V18C0 15.34 5.99625 14 9 14C12.0037 14 18 15.34 18 18V22H0Z" fill="#0000FF"/>
</svg>
