<svg width="24" height="24" viewBox="0 0 24 24" fill="none" xmlns="http://www.w3.org/2000/svg">
<path fill-rule="evenodd" clip-rule="evenodd" d="M1.21191 4.8C3.87591 1.848 7.71591 0 11.9999 0C16.2839 0 20.1359 1.86 22.7879 4.8L11.9999 24L1.21191 4.8ZM11 6C11 7.10457 10.1046 8 9 8C7.89543 8 7 7.10457 7 6C7 4.89543 7.89543 4 9 4C10.1046 4 11 4.89543 11 6ZM14 13C14 14.1046 13.1046 15 12 15C10.8954 15 10 14.1046 10 13C10 11.8954 10.8954 11 12 11C13.1046 11 14 11.8954 14 13Z" fill="#0000FF"/>
</svg>
