<svg width="24" height="24" viewBox="0 0 24 24" fill="none" xmlns="http://www.w3.org/2000/svg">
<path d="M1.41597 2H0V0H1.41597C2.80813 0 4.01736 0.957735 4.33622 2.31288L6.14496 10H24L23.3216 13.3922C23.1346 14.3271 22.3138 15 21.3604 15H7.32143L7.61061 16.229C7.7169 16.6808 8.11998 17 8.58403 17H21V19H8.58403C7.19187 19 5.98264 18.0423 5.66378 16.6871L2.38939 2.77096C2.2831 2.31925 1.88002 2 1.41597 2Z" fill="#0000FF"/>
<path d="M24 8C24 3.58172 20.4183 0 16 0V7C16 7.55228 16.4477 8 17 8H24Z" fill="#0000FF"/>
<path d="M11 22C11 23.1046 10.1046 24 9 24C7.89543 24 7 23.1046 7 22C7 20.8954 7.89543 20 9 20C10.1046 20 11 20.8954 11 22Z" fill="#0000FF"/>
<path d="M18 24C19.1046 24 20 23.1046 20 22C20 20.8954 19.1046 20 18 20C16.8954 20 16 20.8954 16 22C16 23.1046 16.8954 24 18 24Z" fill="#0000FF"/>
</svg>
