<svg width="24" height="24" viewBox="0 0 24 24" fill="none" xmlns="http://www.w3.org/2000/svg">
<path d="M5 8.66726C5 4.9836 7.9836 2 11.6673 2C15.3509 2 18.3345 4.9836 18.3345 8.66726C18.3345 10.8056 17.0177 11.9564 15.7356 13.0769C14.5192 14.1399 13.3341 15.1756 13.3341 17.0013H10.0004C10.0004 13.9656 11.5708 12.7619 12.9514 11.7037C14.0345 10.8735 15.0009 10.1328 15.0009 8.66726C15.0009 6.83376 13.5008 5.33363 11.6673 5.33363C9.83376 5.33363 8.33363 6.83376 8.33363 8.66726H5Z" fill="#0000FF"/>
<path d="M13.3344 21.9985H10.0007V18.6649H13.3344V21.9985Z" fill="#0000FF"/>
</svg>
