<svg width="24" height="24" viewBox="0 0 24 24" fill="none" xmlns="http://www.w3.org/2000/svg">
<path fill-rule="evenodd" clip-rule="evenodd" d="M20.9444 22C22.8446 19.877 24 17.0734 24 14C24 7.37258 18.6274 2 12 2C5.37258 2 0 7.37258 0 14C0 17.0734 1.15541 19.877 3.05557 22H20.9444ZM5 14C5 10.134 8.13401 7 12 7C13.3679 7 14.6441 7.39234 15.7223 8.07062L17.468 6.85091C15.9523 5.6899 14.0567 5 12 5C7.02944 5 3 9.02944 3 14C3 15.6376 3.4383 17.1759 4.20465 18.5007C4.48119 18.9788 5.09292 19.1421 5.57098 18.8656C6.04904 18.5891 6.21241 17.9773 5.93586 17.4993C5.34086 16.4707 5 15.2767 5 14ZM19.1511 8.53462L17.9339 10.2849C18.6094 11.3616 19 12.6352 19 14C19 15.2767 18.6591 16.4707 18.0641 17.4993C17.7876 17.9773 17.951 18.5891 18.429 18.8656C18.9071 19.1421 19.5188 18.9788 19.7953 18.5007C20.5617 17.1759 21 15.6376 21 14C21 11.9445 20.3109 10.0499 19.1511 8.53462ZM19 7L14.235 13.8517C14.277 14.4809 14.0745 15.1132 13.5907 15.5909C12.7065 16.4639 11.2815 16.4759 10.4085 15.5909C9.53549 14.7067 9.52424 13.2817 10.4085 12.4094C10.893 11.9309 11.5492 11.7172 12.1777 11.7667L19 7Z" fill="#0000FF"/>
</svg>
