<svg width="24" height="24" viewBox="0 0 24 24" fill="none" xmlns="http://www.w3.org/2000/svg">
<path d="M12 2.5C17.2467 2.5 21.5 6.75329 21.5 12H24L20.5 17L17 12H19.5C19.5 7.85786 16.1421 4.5 12 4.5C9.65137 4.5 7.55487 5.57956 6.17968 7.26952L5.02991 5.54487C6.76508 3.67216 9.24566 2.5 12 2.5Z" fill="#0000FF"/>
<path d="M12 19.5C7.85786 19.5 4.5 16.1421 4.5 12H7L3.5 7L0 12H2.5C2.5 17.2467 6.75329 21.5 12 21.5C14.7543 21.5 17.2349 20.3278 18.9701 18.4551L17.8203 16.7305C16.4451 18.4204 14.3486 19.5 12 19.5Z" fill="#0000FF"/>
</svg>
