<svg width="24" height="24" viewBox="0 0 24 24" fill="none" xmlns="http://www.w3.org/2000/svg">
<path fill-rule="evenodd" clip-rule="evenodd" d="M21.2525 12C21.2525 12.4125 21.2268 12.8 21.1754 13.175L23.7584 15.15C24.0026 15.325 24.0668 15.6375 23.9126 15.9125L21.4453 20.0625C21.2911 20.3375 20.9698 20.4375 20.6871 20.3375L17.6158 19.1375C16.9861 19.6125 16.2921 20.0125 15.5339 20.3125L15.0713 23.4875C15.0328 23.7875 14.7758 24 14.4673 24H9.53266C9.22425 24 8.98008 23.7875 8.91583 23.4875L8.4532 20.3125C7.69501 20.0125 7.01392 19.6125 6.37139 19.1375L3.30006 20.3375C3.01735 20.425 2.69608 20.3375 2.54187 20.0625L0.0745346 15.9125C-0.0668233 15.6625 -0.00256982 15.325 0.228743 15.15L2.83744 13.175C2.77318 12.8 2.74748 12.3875 2.74748 12C2.74748 11.6125 2.79889 11.2 2.86314 10.825L0.254444 8.85C-0.00256985 8.675 -0.0539726 8.35 0.100236 8.0875L2.55472 3.9375C2.70893 3.6625 3.0302 3.5625 3.31291 3.6625L6.38424 4.8625C7.01392 4.4 7.70786 3.9875 8.46605 3.6875L8.92868 0.5125C8.98008 0.2125 9.22425 0 9.53266 0H14.4673C14.7758 0 15.0328 0.2125 15.0842 0.5125L15.5468 3.6875C16.305 3.9875 16.9861 4.3875 17.6286 4.8625L20.6999 3.6625C20.9827 3.575 21.3039 3.6625 21.4581 3.9375L23.9255 8.0875C24.0668 8.3375 24.0026 8.675 23.7713 8.85L21.1626 10.825C21.2268 11.2 21.2525 11.6 21.2525 12ZM12 17C14.7614 17 17 14.7614 17 12C17 9.23858 14.7614 7 12 7C9.23858 7 7 9.23858 7 12C7 14.7614 9.23858 17 12 17Z" fill="#0000FF"/>
</svg>
