<svg width="24" height="24" viewBox="0 0 24 24" fill="none" xmlns="http://www.w3.org/2000/svg">
<path fill-rule="evenodd" clip-rule="evenodd" d="M17 5C17 2.23858 14.7614 0 12 0C9.23858 0 7 2.23858 7 5H4C2.89543 5 2 5.89543 2 7V22C2 23.1046 2.89543 24 4 24H20C21.1046 24 22 23.1046 22 22V7C22 5.89543 21.1046 5 20 5H17ZM12 2C13.6569 2 15 3.34315 15 5H9C9 3.34315 10.3431 2 12 2ZM12 13C9.23858 13 7 10.7614 7 8H9C9 9.65685 10.3431 11 12 11C13.6569 11 15 9.65685 15 8H17C17 10.7614 14.7614 13 12 13Z" fill="#0000FF"/>
</svg>
