<svg width="24" height="24" viewBox="0 0 24 24" fill="none" xmlns="http://www.w3.org/2000/svg">
<path fill-rule="evenodd" clip-rule="evenodd" d="M5.45455 9.00001L11.1913 1.11202C11.5906 0.562919 12.4094 0.562919 12.8087 1.11202L18.5455 9.00001H23.3478C23.6768 9.00001 23.9161 9.3123 23.8306 9.63L20.8987 20.52C20.6636 21.3932 19.8718 22 18.9674 22H5.03296C4.12863 22 3.33683 21.3932 3.10173 20.52L0.169813 9.63C0.0842789 9.3123 0.32361 9.00001 0.652621 9.00001H5.45455ZM7.92754 9.00001L12 3.40038L16.0725 9.00001H7.92754ZM14.0002 15C14.0002 16.1046 13.1048 17 12.0002 17C10.8956 17 10.0002 16.1046 10.0002 15C10.0002 13.8954 10.8956 13 12.0002 13C13.1048 13 14.0002 13.8954 14.0002 15Z" fill="#0000FF"/>
</svg>
