<svg width="24" height="24" viewBox="0 0 24 24" fill="none" xmlns="http://www.w3.org/2000/svg">
<path fill-rule="evenodd" clip-rule="evenodd" d="M2 0C0.89543 0 0 0.89543 0 2V24L6 18H22C23.1046 18 24 17.1046 24 16V2C24 0.89543 23.1046 0 22 0H2ZM6 11C7.10457 11 8 10.1046 8 9C8 7.89543 7.10457 7 6 7C4.89543 7 4 7.89543 4 9C4 10.1046 4.89543 11 6 11ZM14 9C14 10.1046 13.1046 11 12 11C10.8954 11 10 10.1046 10 9C10 7.89543 10.8954 7 12 7C13.1046 7 14 7.89543 14 9ZM18 11C19.1046 11 20 10.1046 20 9C20 7.89543 19.1046 7 18 7C16.8954 7 16 7.89543 16 9C16 10.1046 16.8954 11 18 11Z" fill="#0000FF"/>
</svg>
