<svg width="24" height="24" viewBox="0 0 24 24" fill="none" xmlns="http://www.w3.org/2000/svg">
<path d="M12.9853 1.88355C15.286 4.18421 16.4572 7.18664 16.4989 10.2018C14.7126 11.1913 13.1743 12.5734 12.0001 14.2315C10.8258 12.5734 9.28751 11.1913 7.50122 10.2018C7.54294 7.18664 8.71412 4.18421 11.0148 1.88355C11.3306 1.56775 11.6596 1.27324 12.0001 1C12.3405 1.27324 12.6695 1.56775 12.9853 1.88355Z" fill="#0000FF"/>
<path d="M0.154666 10.5447C0.420726 10.5263 0.689273 10.517 0.96 10.517C6.17499 10.517 10.5806 13.9822 12 18.7357C13.4194 13.9822 17.825 10.517 23.04 10.517C23.3107 10.517 23.5793 10.5263 23.8453 10.5447C23.9471 11.1603 24 11.7925 24 12.437C24 18.7993 18.8423 23.957 12.48 23.957C12.3192 23.957 12.1592 23.9537 12 23.9471C11.8408 23.9537 11.6808 23.957 11.52 23.957C5.15768 23.957 0 18.7993 0 12.437C0 11.7925 0.052925 11.1603 0.154666 10.5447Z" fill="#0000FF"/>
</svg>
