<svg width="24" height="24" viewBox="0 0 24 24" fill="none" xmlns="http://www.w3.org/2000/svg">
<path d="M15.6513 9.37651L21.9396 3.05707C20.2185 1.3445 17.9571 0.281287 15.5404 0.0484215C13.1774 -0.179268 10.8086 0.400638 8.81954 1.69078L15.6513 9.37651Z" fill="#0000FF"/>
<path d="M7.20841 1.38673C6.45277 0.536029 5.35061 1.62098e-05 4.12326 1.62098e-05C1.88687 1.62098e-05 0.066146 1.77966 0 4.00002H2.00176C2.06652 2.88458 2.99159 2.00002 4.12326 2.00002C4.92037 2.00002 5.61497 2.43887 5.97864 3.08815V16C5.97864 17.1046 6.87407 18 7.97864 18H19.7518C20.6146 18 21.0724 16.9806 20.4992 16.3357L7.21128 1.38673H7.20841Z" fill="#0000FF"/>
<path d="M9.97864 21.5C9.97864 22.8807 8.85935 24 7.47864 24C6.09793 24 4.97864 22.8807 4.97864 21.5C4.97864 20.1193 6.09793 19 7.47864 19C8.85935 19 9.97864 20.1193 9.97864 21.5Z" fill="#0000FF"/>
<path d="M22.4786 21.5C22.4786 22.8807 21.3594 24 19.9786 24C18.5979 24 17.4786 22.8807 17.4786 21.5C17.4786 20.1193 18.5979 19 19.9786 19C21.3594 19 22.4786 20.1193 22.4786 21.5Z" fill="#0000FF"/>
</svg>
