<svg width="24" height="24" viewBox="0 0 24 24" fill="none" xmlns="http://www.w3.org/2000/svg">
<path fill-rule="evenodd" clip-rule="evenodd" d="M2.57143 12.0001H3.53466C3.51172 11.6707 3.5 11.3371 3.5 11C3.5 4.92487 7.99903 0 12 0C16.001 0 20.5 4.92487 20.5 11C20.5 11.3371 20.4883 11.6707 20.4653 12.0001H21.4286C22.6084 12.0001 23 12.75 23 13.5C23 19.2615 18.0745 24 12.0057 24C5.93759 24 1 19.293 1 13.5C1 12.75 1.38988 12.0001 2.57143 12.0001ZM5.5 11C5.5 11.3387 5.51358 11.6723 5.53996 12H18.46C18.4864 11.6723 18.5 11.3387 18.5 11C18.5 6.24348 15.0362 2 12 2C8.96384 2 5.5 6.24348 5.5 11Z" fill="#0000FF"/>
</svg>
