<svg width="24" height="24" viewBox="0 0 24 24" fill="none" xmlns="http://www.w3.org/2000/svg">
<path fill-rule="evenodd" clip-rule="evenodd" d="M0 10.4853C0 11.0157 0.210714 11.5244 0.585787 11.8995L12.0208 23.3345C12.8019 24.1156 14.0682 24.1156 14.8492 23.3345L23.3345 14.8492C24.1156 14.0682 24.1156 12.8019 23.3345 12.0208L11.8995 0.585787C11.5244 0.210714 11.0157 0 10.4853 0H2C0.895431 0 0 0.895428 0 2V10.4853ZM6.33168 3.85705C7.01509 4.54046 7.01509 5.6485 6.33168 6.33192C5.64826 7.01534 4.54022 7.01534 3.8568 6.33192C3.17338 5.6485 3.17338 4.54046 3.8568 3.85705C4.54022 3.17363 5.64826 3.17363 6.33168 3.85705Z" fill="#0000FF"/>
</svg>
