<svg width="24" height="24" viewBox="0 0 24 24" fill="none" xmlns="http://www.w3.org/2000/svg">
<path d="M12 0C18.6274 0 24 5.37258 24 12H22C22 10.5778 21.7031 9.22493 21.1679 8H19C18.4477 8 18 7.55228 18 7V3.99927C17.1047 3.32674 16.0927 2.80101 15 2.4578V4C15 5.10457 14.1046 6 13 6H11V9C11 9.55229 10.5523 10 10 10H8V12H10V15H8L2.35385 9.35385C2.12317 10.1967 2 11.084 2 12C2 17.5228 6.47715 22 12 22V24C5.37258 24 0 18.6274 0 12C0 5.37258 5.37258 0 12 0Z" fill="#0000FF"/>
<path fill-rule="evenodd" clip-rule="evenodd" d="M19.5355 12.4645C21.246 14.1749 21.4581 16.8163 20.1719 18.7577L23.7782 22.364L22.364 23.7782L18.7577 20.1719C16.8163 21.4581 14.1749 21.246 12.4645 19.5355C10.5118 17.5829 10.5118 14.4171 12.4645 12.4645C14.4171 10.5118 17.5829 10.5118 19.5355 12.4645ZM18.1213 18.1213C19.2929 16.9497 19.2929 15.0503 18.1213 13.8787C16.9497 12.7071 15.0503 12.7071 13.8787 13.8787C12.7071 15.0503 12.7071 16.9497 13.8787 18.1213C15.0503 19.2929 16.9497 19.2929 18.1213 18.1213Z" fill="#0000FF"/>
</svg>
