<svg width="24" height="24" viewBox="0 0 24 24" fill="none" xmlns="http://www.w3.org/2000/svg">
<path d="M16 3C16 2.44772 15.5523 2 15 2C14.4477 2 14 2.44772 14 3V7C14 7.55228 14.4477 8 15 8C15.5523 8 16 7.55228 16 7V6H23C23.5523 6 24 5.55228 24 5C24 4.44772 23.5523 4 23 4H16V3Z" fill="#0000FF"/>
<path d="M0 5C0 4.44772 0.447715 4 1 4H12V6H1C0.447715 6 0 5.55228 0 5Z" fill="#0000FF"/>
<path d="M0 12C0 11.4477 0.447715 11 1 11H6V10C6 9.44772 6.44772 9 7 9C7.55228 9 8 9.44772 8 10V14C8 14.5523 7.55228 15 7 15C6.44772 15 6 14.5523 6 14V13H1C0.447715 13 0 12.5523 0 12Z" fill="#0000FF"/>
<path d="M1 18C0.447715 18 0 18.4477 0 19C0 19.5523 0.447715 20 1 20H10V18H1Z" fill="#0000FF"/>
<path d="M23 11H10V13H23C23.5523 13 24 12.5523 24 12C24 11.4477 23.5523 11 23 11Z" fill="#0000FF"/>
<path d="M14 18H23C23.5523 18 24 18.4477 24 19C24 19.5523 23.5523 20 23 20H14V21C14 21.5523 13.5523 22 13 22C12.4477 22 12 21.5523 12 21V17C12 16.4477 12.4477 16 13 16C13.5523 16 14 16.4477 14 17V18Z" fill="#0000FF"/>
</svg>
