<svg width="24" height="24" viewBox="0 0 24 24" fill="none" xmlns="http://www.w3.org/2000/svg">
<path d="M22 4C22 3.44772 21.7761 2.94772 21.4142 2.58579C21.0523 2.22386 20.5523 2 20 2H2C0.89543 2 0 2.89543 0 4V20C0 21.1046 0.89543 22 2 22H20C21.1046 22 22 21.1046 22 20V18H14C12.8954 18 12 17.1046 12 16V8C12 6.89543 12.8954 6 14 6H22V4Z" fill="#0000FF"/>
<path fill-rule="evenodd" clip-rule="evenodd" d="M14 9C14 8.44772 14.4477 8 15 8H23C23.5523 8 24 8.44772 24 9V15C24 15.5523 23.5523 16 23 16H15C14.4477 16 14 15.5523 14 15V9ZM20 12C20 12.8284 19.3284 13.5 18.5 13.5C17.6716 13.5 17 12.8284 17 12C17 11.1716 17.6716 10.5 18.5 10.5C19.3284 10.5 20 11.1716 20 12Z" fill="#0000FF"/>
</svg>
