<svg width="24" height="24" viewBox="0 0 24 24" fill="none" xmlns="http://www.w3.org/2000/svg">
<path d="M12.25 6.5C13.4926 6.5 14.5 5.49264 14.5 4.25C14.5 3.00736 13.4926 2 12.25 2C11.0074 2 10 3.00736 10 4.25C10 5.49264 11.0074 6.5 12.25 6.5Z" fill="#0000FF"/>
<path d="M20 13.5V11.5C18.5 11.5 17.116 10.9227 16.0194 10.1324C15.3226 9.63025 15.0743 9.30906 14.7466 8.88511C14.5585 8.6418 14.3442 8.36464 14.004 8C13.071 7 12.5 7 12 7C11 7 10 8 10 9.5V16C10 17 10.99 17.9876 12.2 17.9876H18V23H20V17.5C20 16 19.5 15 17.5 15H14.004V11.5C15.423 12.677 18 13.5 20 13.5Z" fill="#0000FF"/>
<path d="M8 13.207C5.6915 13.86 4 15.9824 4 18.5C4 21.5376 6.46243 24 9.5 24C12.0176 24 14.14 22.3085 14.793 20H12.6632C12.1015 21.1825 10.8962 22 9.5 22C7.567 22 6 20.433 6 18.5C6 17.1038 6.81753 15.8985 8 15.3368V13.207Z" fill="#0000FF"/>
</svg>
