<svg width="24" height="24" viewBox="0 0 24 24" fill="none" xmlns="http://www.w3.org/2000/svg">
<path fill-rule="evenodd" clip-rule="evenodd" d="M0 2C0 0.89543 0.895431 0 2 0H22C23.1046 0 24 0.895431 24 2V22C24 23.1046 23.1046 24 22 24H2C0.89543 24 0 23.1046 0 22V2ZM13.2518 7.02362L9.58192 16.1792C8.96041 17.7604 8.33891 18.8438 6.45733 18.8438C6.20812 18.8438 5.93027 18.8261 5.65974 18.7786C5.28561 18.6713 5.06504 18.2838 5.1668 17.9079C5.25576 17.577 5.56285 17.3625 5.89189 17.3796C5.91443 17.3814 6.25809 17.4021 6.35619 17.4021C7.3768 17.4021 7.8216 16.7672 8.30113 15.4121L4.88468 7.07724C4.74698 6.65437 4.96268 6.19494 5.3825 6.03713C5.79196 5.88358 6.24651 6.05663 6.42991 6.44477L9.1426 13.2959H9.18281L11.7621 6.49595C11.9071 6.10233 12.336 5.89638 12.7412 6.02555C13.1537 6.15778 13.3841 6.60867 13.2518 7.02362ZM17.2073 7.62703L17.1856 7.63854C16.675 7.92004 13.2232 10.3384 13.6126 10.612C14.0001 10.8819 16.3606 9.8199 17.9734 8.93639C18.2787 8.69205 18.3561 8.25212 18.141 7.91639C17.9509 7.62087 17.5951 7.499 17.274 7.59223C17.2525 7.60293 17.2304 7.61473 17.2073 7.62703ZM19.3602 13.2923C17.5213 13.2917 14.9408 13.0864 14.7312 12.6641C14.5216 12.237 18.7113 11.7776 19.2944 11.7764C19.3291 11.7764 19.362 11.7764 19.3943 11.7782C19.7197 11.8501 19.9732 12.1291 19.9982 12.4789C20.0244 12.8768 19.7453 13.2253 19.3602 13.2923ZM18.141 17.2298C17.9509 17.5247 17.5951 17.6478 17.274 17.5545L17.2368 17.5346C17.2203 17.5258 17.2032 17.5167 17.1856 17.507C16.675 17.2261 13.2232 14.8071 13.6126 14.5347C14.0001 14.2636 16.3606 15.3262 17.9734 16.2098C18.2787 16.4535 18.3561 16.894 18.141 17.2298Z" fill="#0000FF"/>
</svg>
